<svg width="135" height="134" viewBox="0 0 135 134" fill="none" xmlns="http://www.w3.org/2000/svg">
<g clip-path="url(#clip0_1653_5362)">
<path fill-rule="evenodd" clip-rule="evenodd" d="M1.70312 15.2134L68.2093 6.14844L93.5894 25.4473L106.45 119.839L17.6007 131.941L1.70312 15.2134Z" fill="#FFAB02"/>
<path fill-rule="evenodd" clip-rule="evenodd" d="M24.7422 2.03125H91.8634L114.404 24.5719V119.837H24.7422V2.03125Z" fill="#D5E3F2"/>
<path fill-rule="evenodd" clip-rule="evenodd" d="M91.8633 2.03125L114.404 24.5719H91.8633V2.03125Z" fill="#B7CFE8"/>
<path fill-rule="evenodd" clip-rule="evenodd" d="M66.4624 45.6712C65.1564 38.2084 61.186 30.8516 52.5842 30.8516H47.9683C39.3665 30.8516 35.3958 38.2084 34.0977 45.6712H66.4624Z" fill="#FF3D50"/>
<path fill-rule="evenodd" clip-rule="evenodd" d="M50.2767 11.8281C52.528 11.8342 54.6853 12.7313 56.2772 14.3232C57.8691 15.915 58.7661 18.0724 58.7722 20.3236V22.3582C58.7661 24.6095 57.8691 26.7668 56.2772 28.3587C54.6853 29.9506 52.528 30.8476 50.2767 30.8537C48.026 30.8459 45.8696 29.9484 44.2781 28.3568C42.6866 26.7653 41.789 24.609 41.7812 22.3582V20.3236C41.789 18.0729 42.6866 15.9165 44.2781 14.325C45.8696 12.7334 48.026 11.8359 50.2767 11.8281Z" fill="#FBBD80"/>
<path d="M73.8954 35.4694C73.6478 35.4724 73.4021 35.4261 73.1725 35.3334C72.9429 35.2406 72.7339 35.1033 72.5578 34.9292C72.3817 34.7551 72.2418 34.5479 72.1464 34.3194C72.051 34.0909 72.0018 33.8457 72.0018 33.5981C72.0018 33.3504 72.051 33.1053 72.1464 32.8768C72.2418 32.6483 72.3817 32.441 72.5578 32.2669C72.7339 32.0929 72.9429 31.9555 73.1725 31.8628C73.4021 31.77 73.6478 31.7238 73.8954 31.7267H105.061C105.309 31.7238 105.554 31.77 105.784 31.8628C106.014 31.9555 106.222 32.0929 106.399 32.2669C106.575 32.441 106.715 32.6483 106.81 32.8768C106.905 33.1053 106.955 33.3504 106.955 33.5981C106.955 33.8457 106.905 34.0909 106.81 34.3194C106.715 34.5479 106.575 34.7551 106.399 34.9292C106.222 35.1033 106.014 35.2406 105.784 35.3334C105.554 35.4261 105.309 35.4724 105.061 35.4694H73.8954ZM34.0983 107.92C33.852 107.92 33.6081 107.872 33.3805 107.777C33.153 107.683 32.9462 107.545 32.772 107.371C32.5979 107.197 32.4597 106.99 32.3654 106.762C32.2712 106.535 32.2227 106.291 32.2227 106.044C32.2227 105.798 32.2712 105.554 32.3654 105.327C32.4597 105.099 32.5979 104.892 32.772 104.718C32.9462 104.544 33.153 104.406 33.3805 104.312C33.6081 104.217 33.852 104.169 34.0983 104.169H87.06C87.5575 104.169 88.0346 104.366 88.3863 104.718C88.7381 105.07 88.9357 105.547 88.9357 106.044C88.9357 106.542 88.7381 107.019 88.3863 107.371C88.0346 107.723 87.5575 107.92 87.06 107.92H34.0983ZM34.0983 71.6986C33.852 71.6986 33.6081 71.6501 33.3805 71.5558C33.153 71.4615 32.9462 71.3234 32.772 71.1492C32.5979 70.975 32.4597 70.7682 32.3654 70.5407C32.2712 70.3131 32.2227 70.0692 32.2227 69.8229C32.2227 69.5766 32.2712 69.3327 32.3654 69.1051C32.4597 68.8775 32.5979 68.6708 32.772 68.4966C32.9462 68.3224 33.153 68.1843 33.3805 68.09C33.6081 67.9957 33.852 67.9472 34.0983 67.9472H99.64C99.8864 67.9472 100.13 67.9957 100.358 68.09C100.585 68.1843 100.792 68.3224 100.966 68.4966C101.141 68.6708 101.279 68.8775 101.373 69.1051C101.467 69.3327 101.516 69.5766 101.516 69.8229C101.516 70.0692 101.467 70.3131 101.373 70.5407C101.279 70.7682 101.141 70.975 100.966 71.1492C100.792 71.3234 100.585 71.4615 100.358 71.5558C100.13 71.6501 99.8864 71.6986 99.64 71.6986H34.0983ZM34.0983 95.8478C33.852 95.8478 33.6081 95.7993 33.3805 95.7051C33.153 95.6108 32.9462 95.4726 32.772 95.2985C32.5979 95.1243 32.4597 94.9175 32.3654 94.69C32.2712 94.4624 32.2227 94.2185 32.2227 93.9722C32.2227 93.7259 32.2712 93.4819 32.3654 93.2544C32.4597 93.0268 32.5979 92.82 32.772 92.6459C32.9462 92.4717 33.153 92.3335 33.3805 92.2393C33.6081 92.145 33.852 92.0965 34.0983 92.0965H87.7512C88.2486 92.0965 88.7257 92.2941 89.0775 92.6459C89.4292 92.9976 89.6268 93.4747 89.6268 93.9722C89.6268 94.4696 89.4292 94.9467 89.0775 95.2985C88.7257 95.6502 88.2486 95.8478 87.7512 95.8478H34.0983ZM34.0983 83.769C33.6009 83.769 33.1238 83.5714 32.772 83.2197C32.4203 82.8679 32.2227 82.3908 32.2227 81.8934C32.2227 81.3959 32.4203 80.9188 32.772 80.5671C33.1238 80.2153 33.6009 80.0177 34.0983 80.0177H92.6706C93.1681 80.0177 93.6452 80.2153 93.9969 80.5671C94.3487 80.9188 94.5463 81.3959 94.5463 81.8934C94.5463 82.3908 94.3487 82.8679 93.9969 83.2197C93.6452 83.5714 93.1681 83.769 92.6706 83.769H34.0983ZM34.0983 59.6198C33.6009 59.6198 33.1238 59.4221 32.772 59.0704C32.4203 58.7186 32.2227 58.2415 32.2227 57.7441C32.2227 57.2466 32.4203 56.7695 32.772 56.4178C33.1238 56.066 33.6009 55.8684 34.0983 55.8684H105.061C105.559 55.8684 106.036 56.066 106.388 56.4178C106.739 56.7695 106.937 57.2466 106.937 57.7441C106.937 58.2415 106.739 58.7186 106.388 59.0704C106.036 59.4221 105.559 59.6198 105.061 59.6198H34.0983ZM73.8954 47.5482C73.3979 47.5482 72.9209 47.3506 72.5691 46.9989C72.2174 46.6471 72.0197 46.17 72.0197 45.6726C72.0197 45.1751 72.2174 44.698 72.5691 44.3463C72.9209 43.9945 73.3979 43.7969 73.8954 43.7969H105.061C105.558 43.7969 106.036 43.9945 106.387 44.3463C106.739 44.698 106.937 45.1751 106.937 45.6726C106.937 46.17 106.739 46.6471 106.387 46.9989C106.036 47.3506 105.558 47.5482 105.061 47.5482H73.8954Z" fill="#3F5163"/>
<path fill-rule="evenodd" clip-rule="evenodd" d="M20.6735 101.753C24.6009 101.754 28.4403 100.59 31.7062 98.4089C34.9721 96.2276 37.5179 93.1269 39.0215 89.4987C40.5252 85.8706 40.9192 81.8781 40.1537 78.026C39.3883 74.1739 37.4977 70.6354 34.7212 67.8578C31.9446 65.0802 28.4068 63.1883 24.555 62.4214C20.7033 61.6544 16.7106 62.0469 13.0819 63.5492C9.45316 65.0514 6.35142 67.596 4.16888 70.8611C1.98635 74.1262 0.821034 77.9652 0.820312 81.8925C0.830016 87.1556 2.92456 92.2005 6.64544 95.9228C10.3663 99.6451 15.4104 101.742 20.6735 101.753Z" fill="#45BF64"/>
<path d="M31.0827 72.6162C31.4344 72.2661 31.9105 72.0698 32.4067 72.0703C32.9029 72.0709 33.3786 72.2682 33.7295 72.6191C34.0804 72.9699 34.2777 73.4457 34.2783 73.9419C34.2788 74.4381 34.0825 74.9142 33.7324 75.2659L17.8269 91.1786C17.4734 91.5288 16.9959 91.7252 16.4983 91.7252C16.0007 91.7252 15.5233 91.5288 15.1697 91.1786L7.62328 83.6238C7.28729 83.2694 7.10295 82.7978 7.10955 82.3095C7.11614 81.8211 7.31315 81.3547 7.65859 81.0095C8.00404 80.6643 8.47062 80.4676 8.95895 80.4613C9.44728 80.4551 9.91875 80.6397 10.2729 80.976L16.4991 87.2022L31.0827 72.6162Z" fill="#D5E3F2"/>
<path fill-rule="evenodd" clip-rule="evenodd" d="M131.06 41.2541C132.501 42.0884 133.552 43.46 133.983 45.0681C134.414 46.6762 134.19 48.3897 133.36 49.8329L105.407 98.2485L93.7148 106.046L94.5347 91.9702L122.481 43.5544C123.318 42.1165 124.69 41.0679 126.297 40.637C127.904 40.2061 129.616 40.4279 131.06 41.2541Z" fill="#FFAB02"/>
<path fill-rule="evenodd" clip-rule="evenodd" d="M131.061 41.2536C132.502 42.0879 133.553 43.4595 133.985 45.0676C134.416 46.6757 134.192 48.3892 133.362 49.8324L132.626 51.1157L121.746 44.8374L122.483 43.5544C123.32 42.1165 124.691 41.0679 126.298 40.637C127.905 40.2061 129.617 40.4279 131.061 41.2541V41.2536Z" fill="#FF3D50"/>
<path fill-rule="evenodd" clip-rule="evenodd" d="M105.407 98.2473L93.7148 106.044L94.5347 91.9688L105.407 98.2473Z" fill="#3F5163"/>
<path fill-rule="evenodd" clip-rule="evenodd" d="M28.599 11.544V2.03125H24.7422V62.456C26.0655 62.7332 27.3576 63.1427 28.599 63.6783V11.544ZM28.599 100.105C27.3591 100.646 26.0667 101.059 24.7422 101.335V119.837H28.599V100.105Z" fill="#B7CFE8"/>
<path fill-rule="evenodd" clip-rule="evenodd" d="M4.25232 81.8924C4.25225 76.924 6.11531 72.1362 9.47353 68.4746C12.8318 64.813 17.441 62.5438 22.3909 62.1153C21.8204 62.0634 21.2479 62.038 20.6751 62.0392C18.0614 62.0297 15.4716 62.5364 13.0541 63.53C10.6366 64.5237 8.43909 65.9848 6.58756 67.8297C4.73603 69.6745 3.26693 71.8667 2.26452 74.2806C1.2621 76.6944 0.746094 79.2825 0.746094 81.8962C0.746094 84.5099 1.2621 87.0979 2.26452 89.5118C3.26693 91.9256 4.73603 94.1179 6.58756 95.9627C8.43909 97.8075 10.6366 99.2687 13.0541 100.262C15.4716 101.256 18.0614 101.763 20.6751 101.753C21.2597 101.753 21.8292 101.723 22.3909 101.677C17.4399 101.248 12.8299 98.9779 9.47171 95.3147C6.11357 91.6515 4.25157 86.8619 4.25362 81.8924H4.25232Z" fill="#1CA63E"/>
<path fill-rule="evenodd" clip-rule="evenodd" d="M98.255 94.1172L94.5347 91.9688L93.7148 106.044L97.7158 103.38L98.255 94.1172Z" fill="#334454"/>
<path fill-rule="evenodd" clip-rule="evenodd" d="M94.5352 91.9674L98.2555 94.1158L102.044 87.5489L114.404 66.1391L125.465 46.9846L121.745 44.8359L114.404 57.5452L101.102 80.5946L94.5352 91.9674Z" fill="#ED9E00"/>
<path fill-rule="evenodd" clip-rule="evenodd" d="M121.748 44.836L125.468 46.9847L126.212 45.7017C126.858 44.5877 127.831 43.6987 128.998 43.1544C130.166 42.6101 131.472 42.4366 132.741 42.6574C132.266 42.0967 131.698 41.6216 131.063 41.2527C129.619 40.4265 127.907 40.2047 126.3 40.6356C124.693 41.0665 123.321 42.1151 122.484 43.553L121.748 44.836ZM37.552 45.6712C39.1463 38.8458 43.1397 32.5978 51.0657 32.5978H55.6892C57.2112 32.584 58.7232 32.8437 60.1533 33.3644C58.1719 31.8014 55.6741 30.8516 52.5842 30.8516H47.9683C39.3665 30.8516 35.3958 38.2084 34.0977 45.6712H37.552Z" fill="#E82E41"/>
<path fill-rule="evenodd" clip-rule="evenodd" d="M44.0818 22.3583V20.3237C44.089 18.271 44.836 16.2896 46.1858 14.7432C47.5357 13.1967 49.3979 12.1887 51.4308 11.9042C51.0483 11.8522 50.6627 11.8268 50.2767 11.8282C48.026 11.8359 45.8696 12.7335 44.2781 14.325C42.6866 15.9166 41.789 18.0729 41.7812 20.3237V22.3583C41.789 24.609 42.6866 26.7654 44.2781 28.3569C45.8696 29.9484 48.026 30.846 50.2767 30.8537C50.6627 30.8552 51.0483 30.8299 51.4308 30.7779C49.3979 30.4933 47.5357 29.4853 46.1859 27.9388C44.836 26.3923 44.089 24.411 44.0818 22.3583Z" fill="#F5AD65"/>
<path fill-rule="evenodd" clip-rule="evenodd" d="M18.2158 101.598C16.5281 101.389 14.8744 100.963 13.2961 100.33L17.6007 131.935L22.2623 131.298L18.2158 101.598ZM8.63452 66.1049C9.98534 65.0732 11.4626 64.2184 13.0304 63.5616L6.35688 14.5703L1.70312 15.208L8.63452 66.1049Z" fill="#ED9E00"/>
</g>
<defs>
<clipPath id="clip0_1653_5362">
<rect width="133.381" height="133.381" fill="white" transform="translate(0.820312 0.296875)"/>
</clipPath>
</defs>
</svg>
