<svg width="53" height="50" viewBox="0 0 53 50" fill="none" xmlns="http://www.w3.org/2000/svg">
<path d="M43.7035 19.9229C48.6203 18.757 51.6609 13.8255 50.4949 8.90814C49.3288 3.99074 44.3977 0.949569 39.4808 2.11548C34.564 3.2814 31.5234 8.2129 32.6894 13.1303C33.8555 18.0477 38.7866 21.0889 43.7035 19.9229Z" fill="#597F9A" fill-opacity="0.8"/>
<path d="M36.5133 28.7076C37.2769 27.9835 37.8847 27.1114 38.2996 26.1444C38.7146 25.1774 38.9279 24.1359 38.9265 23.0836C38.9265 22.69 38.8955 22.2965 38.8333 21.9132C37.1197 21.4718 35.5339 20.6333 34.2043 19.4656C32.8746 18.2979 31.8384 16.8337 31.1793 15.1914C29.9054 15.15 28.6107 15.44 27.4093 16.0717L13.4063 17.6253C12.2836 17.7503 11.2089 18.1499 10.2773 18.7888C9.34565 19.4277 8.58571 20.2862 8.06461 21.2884C7.54351 22.2907 7.27729 23.4059 7.28946 24.5355C7.30164 25.6651 7.59184 26.7743 8.13443 27.7651L13.6963 37.9256C12.1738 43.4149 11.9252 47.6199 11.8941 48.4278C11.8838 48.7074 11.9873 48.9767 12.1738 49.1735C12.3602 49.3807 12.6191 49.4946 12.8884 49.505L26.56 50.0021H26.5911C27.14 50.0021 27.5957 49.5671 27.6268 49.0182C27.6579 48.5003 28.445 36.2891 36.5133 28.7076ZM17.0624 29.0805L15.7781 26.7294C15.5295 26.2736 15.5192 25.7454 15.7574 25.2897C15.9956 24.8236 16.4306 24.5336 16.9485 24.4715L19.8899 24.1504C18.8542 25.704 17.9117 27.3508 17.0624 29.0805Z" fill="#597F9A" fill-opacity="0.8"/>
<path d="M1.86184 31.0466C1.78018 31.3088 1.80599 31.5927 1.9336 31.8359C2.0612 32.0791 2.28016 32.2616 2.54232 32.3434L8.8447 34.3092C9.10392 34.3804 9.38067 34.3482 9.61658 34.2193C9.8525 34.0904 10.0291 33.8749 10.1092 33.6183C10.1893 33.3617 10.1665 33.084 10.0458 32.8438C9.92505 32.6036 9.71573 32.4197 9.462 32.3309L3.15857 30.3672C2.89624 30.2855 2.61221 30.3113 2.36888 30.4389C2.12554 30.5665 1.9428 30.7854 1.86081 31.0477L1.86184 31.0466ZM11.144 38.1331C10.9755 37.9165 10.7279 37.7757 10.4557 37.7415C10.1834 37.7074 9.90874 37.7826 9.69193 37.9508L3.92397 42.4355C3.81652 42.519 3.72659 42.623 3.6593 42.7413C3.59201 42.8597 3.54869 42.9901 3.53182 43.1252C3.49773 43.398 3.5734 43.6731 3.7422 43.8901C3.911 44.1072 4.15909 44.2482 4.4319 44.2823C4.7047 44.3164 4.97987 44.2407 5.19688 44.0719L10.9638 39.5862C11.0712 39.5026 11.1611 39.3988 11.2284 39.2804C11.2957 39.1621 11.339 39.0317 11.3558 38.8967C11.3726 38.7616 11.3627 38.6246 11.3265 38.4934C11.2904 38.3622 11.2287 38.2394 11.145 38.132L11.144 38.1331ZM6.98868 36.8488C6.94696 36.7193 6.88013 36.5992 6.79201 36.4956C6.70388 36.3919 6.5962 36.3066 6.47511 36.2446C6.35401 36.1825 6.22188 36.145 6.08626 36.134C5.95064 36.1231 5.81419 36.1389 5.68471 36.1807L0.718403 37.7809C0.588918 37.8226 0.468913 37.8894 0.365238 37.9775C0.261563 38.0655 0.176249 38.1732 0.114168 38.2942C0.0520859 38.4152 0.0144521 38.5473 0.00341517 38.6829C-0.00762171 38.8185 0.00815452 38.9549 0.0498426 39.0844C0.0915307 39.2139 0.158315 39.3339 0.246381 39.4375C0.334448 39.5412 0.442072 39.6265 0.563109 39.6886C0.684147 39.7507 0.816227 39.7883 0.951809 39.7994C1.08739 39.8104 1.22382 39.7946 1.3533 39.7529L6.32064 38.1507C6.45015 38.1089 6.57016 38.0421 6.67383 37.954C6.7775 37.8659 6.86279 37.7582 6.92483 37.6371C6.98687 37.516 7.02444 37.3839 7.0354 37.2482C7.04635 37.1126 7.03048 36.9762 6.98868 36.8467V36.8488Z" fill="#597F9A" fill-opacity="0.8"/>
</svg>
