<svg width="50" height="50" viewBox="0 0 50 50" fill="none" xmlns="http://www.w3.org/2000/svg">
<g clip-path="url(#clip0_1653_5578)">
<path d="M42.675 7.31966C32.9105 -2.44196 17.0813 -2.43961 7.31966 7.32504C-2.44196 17.0897 -2.43961 32.9188 7.32504 42.6804C17.0897 52.442 32.9188 52.4397 42.6804 42.675C45.0015 40.3532 46.8426 37.597 48.0985 34.5636C49.3544 31.5303 50.0006 28.2793 50.0001 24.9962C49.9996 21.7132 49.3524 18.4624 48.0956 15.4294C46.8388 12.3965 44.9969 9.64078 42.675 7.31966ZM37.8617 34.8247L37.8583 34.8281V34.8198L36.5916 36.0781C35.7861 36.8937 34.784 37.4879 33.6818 37.8032C32.5797 38.1185 31.4149 38.1443 30.2999 37.8781C28.0153 37.2665 25.8434 36.2931 23.8666 34.9948C22.0301 33.8211 20.3282 32.4489 18.7916 30.9031C17.3779 29.4996 16.1077 27.9587 14.9999 26.3031C13.7882 24.5216 12.8291 22.581 12.1499 20.5364C11.7682 19.3587 11.7219 18.098 12.0163 16.8955C12.3107 15.693 12.9341 14.5962 13.8166 13.7281L15.2999 12.2448C15.7123 11.8305 16.3825 11.829 16.7966 12.2414L16.7999 12.2448L21.4832 16.9281C21.8975 17.3405 21.899 18.0106 21.4866 18.4247L21.4832 18.4281L18.7332 21.1781C17.9442 21.9585 17.845 23.1988 18.4999 24.0948C19.4946 25.4598 20.5952 26.7443 21.7916 27.9365C23.1255 29.2761 24.5757 30.4948 26.1249 31.5782C27.0202 32.2026 28.2338 32.0973 29.0082 31.3282L31.6665 28.6282C32.0789 28.2139 32.7491 28.2124 33.1632 28.6248L33.1665 28.6282L37.8582 33.3282C38.2726 33.7405 38.2741 34.4105 37.8617 34.8247Z" fill="white"/>
</g>
<defs>
<clipPath id="clip0_1653_5578">
<rect width="50" height="50" fill="white"/>
</clipPath>
</defs>
</svg>
