<svg width="135" height="134" viewBox="0 0 135 134" fill="none" xmlns="http://www.w3.org/2000/svg">
<path d="M118.376 29.1402L109.357 120.447C109.101 122.996 107.908 125.359 106.01 127.079C104.112 128.799 101.643 129.754 99.0812 129.759H27.0279C25.5862 129.759 24.1604 129.457 22.8423 128.873C21.5242 128.289 20.3432 127.435 19.3752 126.367C18.4073 125.298 17.6739 124.039 17.2224 122.67C16.7708 121.301 16.6112 119.852 16.7536 118.417L25.7726 27.11C26.0251 24.5599 27.2164 22.1946 29.115 20.4735C31.0137 18.7525 33.4842 17.7985 36.0468 17.7969H108.1C114.191 17.7969 118.963 23.0713 118.376 29.1402Z" fill="#4269C4"/>
<path d="M112.82 29.1402L103.799 120.447C103.542 122.996 102.35 125.359 100.452 127.079C98.5542 128.799 96.0858 129.753 93.5245 129.759H21.4713C20.0294 129.759 18.6033 129.458 17.285 128.874C15.9667 128.29 14.7854 127.436 13.8173 126.368C12.8491 125.299 12.1156 124.039 11.6639 122.67C11.2123 121.301 11.0526 119.852 11.1951 118.417L20.214 27.11C20.4665 24.5595 21.6581 22.194 23.5572 20.4729C25.4562 18.7518 27.9273 17.798 30.4902 17.7969H102.542C108.632 17.7969 113.404 23.0713 112.82 29.1402Z" fill="#8A9BEA"/>
<path d="M19.6306 123.551C19.3441 123.554 19.0603 123.496 18.7984 123.38C18.5365 123.264 18.3025 123.093 18.1124 122.879C17.8378 122.575 17.524 122.055 17.5965 121.317L27.0254 25.8516C27.0742 25.3463 27.3097 24.8773 27.6859 24.5363C28.062 24.1954 28.5518 24.0069 29.0595 24.0078H104.386C105.122 24.0078 105.607 24.3707 105.885 24.6767C106.168 24.9886 106.489 25.5182 106.417 26.2714L96.9917 121.706C96.8897 122.739 95.9952 123.551 94.9596 123.551H19.6306Z" fill="white"/>
<path d="M83.5189 16.9115H51.6055L54.9969 7.82985C55.393 6.76941 56.1037 5.8553 57.0337 5.20993C57.9637 4.56456 59.0687 4.21873 60.2007 4.21875H74.9256C77.2441 4.21875 79.3193 5.65848 80.1294 7.82985L83.5189 16.9115Z" fill="#255299"/>
<path d="M83.5111 16.9176H51.5977L53.1668 12.72C55.7168 13.1515 58.5609 13.3869 61.562 13.3869C70.016 13.3869 77.2931 11.4843 80.4707 8.75781L83.5111 16.9176Z" fill="#272791"/>
<path d="M92.4347 17.8166V23.093C92.4347 29.0755 87.5899 33.9008 81.6465 33.9008H53.4796C47.5363 33.9008 42.6914 29.0755 42.6914 23.093V17.8166C42.6914 15.757 44.3391 14.1094 46.3594 14.1094H88.7275C90.7871 14.1094 92.4347 15.757 92.4347 17.8166Z" fill="#255299"/>
<path d="M86.7653 27.5067C86.7653 28.3501 78.174 29.0563 67.5623 29.0563C56.9507 29.0563 48.3594 28.3501 48.3594 27.5067C48.3594 26.6436 56.9507 25.9375 67.5623 25.9375C78.174 25.9375 86.7653 26.6436 86.7653 27.5067Z" fill="#272791"/>
<path d="M67.5623 22.0757C78.1678 22.0757 86.7653 21.3819 86.7653 20.5261C86.7653 19.6703 78.1678 18.9766 67.5623 18.9766C56.9568 18.9766 48.3594 19.6703 48.3594 20.5261C48.3594 21.3819 56.9568 22.0757 67.5623 22.0757Z" fill="#272791"/>
<path d="M44.0032 61.1158C50.9992 61.1158 56.6705 55.4445 56.6705 48.4485C56.6705 41.4526 50.9992 35.7812 44.0032 35.7812C37.0073 35.7812 31.3359 41.4526 31.3359 48.4485C31.3359 55.4445 37.0073 61.1158 44.0032 61.1158Z" fill="#FBAD3E"/>
<path d="M25.2977 116.368C25.2558 116.369 25.2143 116.36 25.1761 116.343C25.1378 116.326 25.1036 116.301 25.076 116.27C25.0485 116.24 25.0275 116.205 25.0147 116.166C25.0018 116.128 24.9973 116.087 25.0015 116.046L26.3647 102.251C26.3716 102.178 26.4056 102.11 26.46 102.061C26.5145 102.011 26.5855 101.984 26.659 101.984H41.7859C41.8919 101.984 41.9625 102.037 42.0017 102.082C42.0303 102.113 42.0522 102.149 42.0657 102.189C42.0792 102.228 42.0842 102.27 42.0802 102.312L40.7169 116.101C40.7092 116.174 40.675 116.241 40.6207 116.291C40.5664 116.34 40.496 116.367 40.4227 116.368H25.2977Z" fill="#AEC46E"/>
<path d="M41.4301 108.883L40.7141 116.107C40.7056 116.178 40.6718 116.243 40.6188 116.291C40.5658 116.339 40.4972 116.366 40.4258 116.368H25.291C25.2497 116.368 25.2089 116.359 25.1712 116.343C25.1334 116.326 25.0994 116.302 25.0713 116.272C25.0443 116.242 25.0241 116.208 25.0122 116.17C25.0004 116.132 24.9971 116.091 25.0026 116.052L25.4989 111.017C27.4371 111.685 29.4745 112.02 31.5246 112.007C35.5829 112.007 39.1881 110.782 41.4301 108.883Z" fill="#617F4D"/>
<path d="M37.8493 105.648C37.3628 107.127 36.5743 108.289 35.7152 109.414C34.8389 110.495 33.8404 111.471 32.7396 112.321L32.4885 112.508C32.392 112.585 32.281 112.641 32.1622 112.674C32.0434 112.708 31.9191 112.717 31.7967 112.701C31.6744 112.685 31.5564 112.645 31.4498 112.583C31.3432 112.521 31.2502 112.438 31.1763 112.339L31.1606 112.321C30.4035 111.28 29.6816 110.187 29.2266 108.826C30.1838 109.128 30.9919 109.566 31.749 110.052C32.4505 109.216 33.2323 108.45 34.0832 107.767C35.1934 106.925 36.3703 106.119 37.8493 105.648Z" fill="white"/>
<path d="M49.0684 103.293C56.0964 102.52 63.1263 102.344 70.1544 102.312C77.1824 102.34 84.2123 102.516 91.2403 103.293C84.2123 104.068 77.1824 104.245 70.1544 104.274C63.1263 104.241 56.0964 104.064 49.0684 103.293ZM49.0684 109.178C56.0964 108.405 63.1263 108.228 70.1544 108.197C77.1824 108.224 84.2123 108.401 91.2403 109.178C84.2123 109.952 77.1824 110.129 70.1544 110.158C63.1263 110.125 56.0964 109.949 49.0684 109.178ZM49.0684 115.062C54.5801 114.289 60.0919 114.113 65.6037 114.081C71.1155 114.109 76.6253 114.285 82.1371 115.062C76.6253 115.837 71.1135 116.013 65.6017 116.043C60.09 116.01 54.5782 115.833 49.0664 115.062H49.0684Z" fill="#D1DAFE"/>
<path d="M27.3818 98.5867C27.3405 98.5874 27.2994 98.5792 27.2615 98.5626C27.2236 98.546 27.1897 98.5214 27.1622 98.4906C27.1343 98.4605 27.1133 98.4248 27.1004 98.3859C27.0875 98.347 27.0832 98.3058 27.0876 98.265L28.4489 84.4699C28.4558 84.3967 28.4898 84.3287 28.5442 84.2794C28.5987 84.23 28.6696 84.2028 28.7431 84.2031H43.8701C43.976 84.2031 44.0466 84.2561 44.0859 84.3012C44.1145 84.3317 44.1363 84.3679 44.1498 84.4075C44.1634 84.4471 44.1683 84.4891 44.1643 84.5307L42.8011 98.3199C42.7938 98.3931 42.7598 98.4611 42.7055 98.5107C42.6512 98.5603 42.5804 98.5881 42.5069 98.5887L27.3818 98.5867Z" fill="#AEC46E"/>
<path d="M43.5138 91.1094L42.7979 98.3316C42.7898 98.4029 42.7561 98.4688 42.7031 98.5172C42.6501 98.5655 42.5813 98.593 42.5095 98.5944H27.3747C27.3333 98.594 27.2925 98.5851 27.2547 98.5682C27.2169 98.5513 27.183 98.5269 27.155 98.4963C27.1277 98.4673 27.1071 98.4325 27.0949 98.3945C27.0827 98.3565 27.0791 98.3162 27.0844 98.2767L27.5807 93.2415C29.5188 93.9097 31.5562 94.2447 33.6063 94.2321C37.6666 94.2321 41.2718 93.0081 43.5138 91.1094Z" fill="#617F4D"/>
<path d="M39.9352 87.8691C39.4468 89.3481 38.6583 90.5073 37.8011 91.6352C36.9248 92.7158 35.9263 93.6913 34.8255 94.5421L34.5725 94.7265C34.4761 94.8031 34.3654 94.8597 34.2469 94.8929C34.1283 94.926 34.0043 94.9351 33.8822 94.9196C33.7601 94.904 33.6423 94.8642 33.5358 94.8024C33.4293 94.7406 33.3363 94.6581 33.2622 94.5598L33.2446 94.5402C32.4874 93.5006 31.7656 92.4061 31.3125 91.0448C32.2697 91.3488 33.0778 91.7862 33.833 92.2727C34.535 91.4357 35.3175 90.6697 36.1691 89.9856C37.2793 89.1461 38.4562 88.3399 39.9352 87.8691Z" fill="white"/>
<path d="M51.1523 85.512C58.1823 84.7411 65.2103 84.5646 72.2383 84.5312C79.2683 84.5587 86.2963 84.7372 93.3243 85.512C86.2963 86.2887 79.2683 86.4653 72.2383 86.4927C65.2103 86.4594 58.1823 86.2829 51.1523 85.512ZM51.1523 91.3965C58.1823 90.6256 65.2103 90.4491 72.2383 90.4157C79.2683 90.4432 86.2963 90.6217 93.3243 91.3965C86.2963 92.1732 79.2683 92.3497 72.2383 92.3772C65.2103 92.3439 58.1823 92.1673 51.1523 91.3965ZM51.1523 97.2809C56.6641 96.5101 62.1759 96.3335 67.6877 96.3002C73.1995 96.3276 78.7112 96.5061 84.223 97.2809C78.7112 98.0577 73.1995 98.2342 67.6877 98.2617C62.1759 98.2283 56.6641 98.0518 51.1523 97.2809Z" fill="#D1DAFE"/>
<path d="M29.4637 80.8133C29.4222 80.8137 29.381 80.8052 29.3431 80.7882C29.3052 80.7713 29.2714 80.7464 29.244 80.7152C29.2164 80.6854 29.1955 80.65 29.1827 80.6114C29.1698 80.5729 29.1653 80.532 29.1695 80.4916L30.5327 66.6965C30.5396 66.6233 30.5736 66.5553 30.628 66.5059C30.6825 66.4566 30.7534 66.4294 30.8269 66.4297H45.9539C46.0598 66.4297 46.1304 66.4826 46.1697 66.5278C46.1983 66.5582 46.2201 66.5945 46.2337 66.6341C46.2472 66.6736 46.2521 66.7156 46.2481 66.7573L44.8849 80.5465C44.8772 80.6194 44.8429 80.6868 44.7887 80.736C44.7344 80.7852 44.6639 80.8127 44.5907 80.8133H29.4637Z" fill="#AEC46E"/>
<path d="M45.598 73.3281L44.8821 80.5523C44.8736 80.6232 44.8397 80.6887 44.7867 80.7367C44.7337 80.7846 44.6652 80.8118 44.5938 80.8132H29.4589C29.4178 80.8132 29.3771 80.8049 29.3394 80.7887C29.3016 80.7726 29.2675 80.7488 29.2392 80.719C29.2122 80.6898 29.1921 80.6549 29.1802 80.6169C29.1683 80.5789 29.165 80.5387 29.1706 80.4993L29.6668 75.4642C31.605 76.1324 33.6424 76.4673 35.6925 76.4547C39.7509 76.4547 43.3561 75.2288 45.598 73.3301V73.3281Z" fill="#617F4D"/>
<path d="M42.0172 70.0938C41.5308 71.5727 40.7423 72.7339 39.8831 73.8598C39.0069 74.9404 38.0083 75.9159 36.9076 76.7667L36.6565 76.9531C36.56 77.0299 36.449 77.0866 36.3302 77.1198C36.2113 77.153 36.0871 77.162 35.9647 77.1462C35.8423 77.1305 35.7244 77.0904 35.6178 77.0282C35.5112 76.9661 35.4182 76.8831 35.3442 76.7844L35.3286 76.7667C34.5714 75.7252 33.8496 74.6326 33.3945 73.2714C34.3517 73.5734 35.1599 74.0108 35.917 74.4973C36.6185 73.6611 37.4003 72.8957 38.2512 72.2122C39.3614 71.3707 40.5383 70.5645 42.0172 70.0938Z" fill="white"/>
<path d="M53.2363 67.7427C60.2643 66.9699 67.2943 66.7933 74.3223 66.7619C81.3503 66.7894 88.3803 66.9659 95.4083 67.7427C88.3803 68.5175 81.3503 68.694 74.3223 68.7234C67.2943 68.6901 60.2643 68.5136 53.2363 67.7427ZM53.2363 73.6272C60.2643 72.8543 67.2943 72.6778 74.3223 72.6464C81.3503 72.6739 88.3803 72.8504 95.4083 73.6272C88.3803 74.4019 81.3503 74.5785 74.3223 74.6079C67.2943 74.5746 60.2643 74.398 53.2363 73.6272ZM53.2363 79.5116C58.7481 78.7388 64.2599 78.5623 69.7717 78.5309C75.2835 78.5583 80.7933 78.7349 86.305 79.5116C80.7933 80.2864 75.2815 80.4629 69.7697 80.4924C64.2579 80.459 58.7462 80.2825 53.2344 79.5116H53.2363ZM63.5341 37.9104C68.9008 37.1396 74.2674 36.963 79.634 36.9297C85.0007 36.9591 90.3692 37.1356 95.7359 37.9104C90.3692 38.6872 85.0007 38.8637 79.634 38.8912C74.2674 38.8598 68.9008 38.6813 63.5341 37.9104ZM63.5341 44.9384C68.9008 44.1676 74.2674 43.991 79.634 43.9577C85.0007 43.9871 90.3692 44.1637 95.7359 44.9384C90.3692 45.7152 85.0007 45.8917 79.634 45.9192C74.2674 45.8878 68.9008 45.7113 63.5341 44.9384ZM63.5341 51.9684C68.9008 51.1975 74.2674 51.0191 79.634 50.9877C85.0007 51.0151 90.3692 51.1917 95.7359 51.9684C90.3692 52.7432 85.0007 52.9217 79.634 52.9492C74.2674 52.9158 68.9008 52.7393 63.5341 51.9684ZM63.5341 58.9964C66.2037 58.2236 68.8733 58.049 71.5429 58.0157C74.2125 58.0451 76.884 58.2197 79.5536 58.9964C76.884 59.7751 74.2125 59.9477 71.5429 59.9772C68.8753 59.9438 66.2037 59.7692 63.5341 58.9964Z" fill="#D1DAFE"/>
<path d="M51.1725 54.1806C51.1725 58.1173 36.8281 58.1173 36.8281 54.1806C36.8281 51.2266 38.5856 48.7669 41.0453 47.643C40.5575 47.2267 40.1665 46.7089 39.8995 46.1259C39.6326 45.5428 39.4961 44.9085 39.4997 44.2672C39.5074 43.0757 39.9841 41.9352 40.8267 41.0926C41.6692 40.2501 42.8098 39.7733 44.0013 39.7656C46.5316 39.7656 48.5715 41.8056 48.5715 44.2672C48.5715 45.6011 48.0086 46.8662 47.022 47.7116C49.4856 48.7689 51.1725 51.3011 51.1725 54.1806Z" fill="#E0860E"/>
<path d="M100.094 86.9255L106.6 82.4141L112.406 90.7857L105.9 95.2971L100.094 86.9255Z" fill="#2D2D2D"/>
<path d="M126.613 110.766L119.463 115.715C118.726 116.226 117.817 116.425 116.934 116.267C116.051 116.109 115.266 115.608 114.752 114.873L102.806 97.6318C102.552 97.2673 102.373 96.8562 102.279 96.4222C102.185 95.9881 102.178 95.5398 102.258 95.103C102.339 94.6662 102.505 94.2496 102.747 93.8773C102.989 93.505 103.303 93.1844 103.669 92.934L110.819 87.9655C111.554 87.4582 112.46 87.2624 113.339 87.4208C114.218 87.5792 114.999 88.0789 115.511 88.8109L127.476 106.052C127.984 106.793 128.178 107.704 128.016 108.587C127.854 109.47 127.35 110.253 126.613 110.766Z" fill="#B53016"/>
<path d="M111.032 50.5967C102.917 38.8964 86.8702 35.9875 75.166 44.0846C63.4637 52.1992 60.5588 68.2638 68.6735 79.966C76.7862 91.6487 92.8331 94.5576 104.537 86.4605C116.238 78.3459 119.144 62.2813 111.032 50.5967ZM100.565 80.731C92.0309 86.6528 80.3227 84.5265 74.403 75.9921C68.4832 67.4576 70.6055 55.7338 79.138 49.8121C87.6744 43.91 99.4002 46.0343 105.302 54.5707C111.224 63.1031 109.098 74.8093 100.565 80.731Z" fill="#3A3A3A"/>
<path d="M126.613 110.766L119.463 115.715C118.726 116.226 117.817 116.425 116.934 116.267C116.051 116.11 115.266 115.608 114.752 114.874L114.409 114.371C117.763 111.5 119.587 105.953 118.69 99.9545C117.845 94.3094 114.83 89.7548 111.117 87.7894C112.618 86.9715 114.534 87.3912 115.511 88.8113L127.476 106.053C127.984 106.793 128.178 107.704 128.016 108.587C127.855 109.471 127.35 110.254 126.613 110.766Z" fill="#912010"/>
<path d="M5.01562 25.846V36.2772C5.01562 37.5875 6.07875 38.6506 7.38902 38.6506H31.8193C31.9017 38.6506 31.9821 38.6741 32.0488 38.7212L35.4089 41.0593C35.4691 41.1012 35.5397 41.1258 35.6129 41.1304C35.6862 41.1351 35.7593 41.1196 35.8244 41.0856C35.8894 41.0517 35.944 41.0006 35.9821 40.9378C36.0201 40.8751 36.0403 40.8032 36.0405 40.7298V39.0527C36.0405 38.8291 36.2209 38.6506 36.4426 38.6506H37.7195C38.349 38.6506 38.9526 38.4005 39.3977 37.9554C39.8428 37.5103 40.0929 36.9067 40.0929 36.2772V25.846C40.0929 24.5455 39.0298 23.4844 37.7195 23.4844H7.38902C6.07875 23.4844 5.01562 24.5455 5.01562 25.846Z" fill="#B53016"/>
<path d="M31.4616 37.1732C34.8339 37.1732 37.5677 34.4394 37.5677 31.067C37.5677 27.6947 34.8339 24.9609 31.4616 24.9609C28.0893 24.9609 25.3555 27.6947 25.3555 31.067C25.3555 34.4394 28.0893 37.1732 31.4616 37.1732Z" fill="#912010"/>
<path d="M27.2326 32.7135C27.1747 32.8126 27.1487 32.9272 27.1582 33.0416C27.1676 33.156 27.2121 33.2647 27.2855 33.3529C27.7967 33.9624 28.4355 34.4523 29.1567 34.7878C29.878 35.1233 30.6641 35.2964 31.4596 35.2948C33.1386 35.2948 34.6372 34.5416 35.6375 33.3529C35.7106 33.2645 35.7547 33.1557 35.7639 33.0413C35.773 32.9269 35.7467 32.8124 35.6885 32.7135C35.2521 31.9816 34.6331 31.3755 33.8922 30.9546C33.1512 30.5338 32.3137 30.3125 31.4615 30.3125C30.6094 30.3125 29.7718 30.5338 29.0309 30.9546C28.2899 31.3755 27.6709 31.9816 27.2345 32.7135H27.2326Z" fill="white"/>
<path d="M29.4258 28.8651V29.8851C29.4258 30.4253 29.6404 30.9435 30.0224 31.3255C30.4044 31.7075 30.9225 31.9221 31.4628 31.9221C32.003 31.9221 32.5212 31.7075 32.9032 31.3255C33.2852 30.9435 33.4998 30.4253 33.4998 29.8851V28.8651C33.4998 28.3249 33.2852 27.8068 32.9032 27.4247C32.5212 27.0427 32.003 26.8281 31.4628 26.8281C30.9225 26.8281 30.4044 27.0427 30.0224 27.4247C29.6404 27.8068 29.4258 28.3249 29.4258 28.8651Z" fill="white"/>
<path d="M16.0555 28.8357C15.4279 28.9337 14.8002 29.0848 14.1607 29.377C14.7982 29.6712 15.4279 29.8223 16.0555 29.9302C16.683 30.0284 17.3171 30.0789 17.9523 30.0812C19.2194 30.0616 20.4865 29.9419 21.7419 29.377C20.4865 28.8258 19.2194 28.7062 17.9523 28.6728C17.3166 28.6738 16.6821 28.7283 16.0555 28.8357ZM8.07227 26.3975C9.20994 26.6917 10.3476 26.8428 11.4853 26.9409C12.6327 27.0585 13.7704 27.0919 14.9081 27.1037C17.1834 27.0703 19.4685 26.9507 21.7419 26.3975C19.4666 25.8365 17.1814 25.7169 14.9081 25.6953C13.7704 25.7051 12.6327 25.7385 11.4833 25.8463C10.3456 25.9444 9.20994 26.1072 8.07227 26.3975Z" fill="#912010"/>
<path d="M18.8868 33.6478C18.926 33.6812 18.9417 33.7361 18.9358 33.7871L18.8083 34.5187C18.7848 34.6501 18.9221 34.7443 19.0378 34.6835L19.6949 34.3382C19.7177 34.3265 19.7429 34.3204 19.7685 34.3204C19.794 34.3204 19.8193 34.3265 19.842 34.3382L20.4972 34.6835C20.6148 34.7443 20.7502 34.6501 20.7266 34.5187L20.6031 33.7871C20.5982 33.7619 20.5997 33.736 20.6076 33.7116C20.6155 33.6872 20.6295 33.6653 20.6482 33.6478L21.1817 33.128C21.2023 33.1071 21.2167 33.0809 21.2233 33.0523C21.23 33.0237 21.2285 32.9938 21.2192 32.9659C21.2098 32.9381 21.1929 32.9134 21.1704 32.8946C21.1479 32.8757 21.1205 32.8635 21.0915 32.8593L20.3579 32.7514C20.3326 32.7481 20.3085 32.7387 20.2876 32.724C20.2668 32.7093 20.2498 32.6898 20.2382 32.6671L19.9087 32.0002C19.8953 31.9742 19.8751 31.9525 19.8502 31.9373C19.8253 31.9221 19.7967 31.9141 19.7675 31.9141C19.7383 31.9141 19.7097 31.9221 19.6848 31.9373C19.6599 31.9525 19.6396 31.9742 19.6263 32.0002L19.2967 32.6671C19.2853 32.6895 19.2687 32.7089 19.2482 32.7236C19.2277 32.7383 19.204 32.7478 19.179 32.7514L18.4435 32.8593C18.4143 32.8634 18.387 32.8757 18.3645 32.8947C18.342 32.9137 18.3253 32.9386 18.3163 32.9666C18.3072 32.9947 18.3063 33.0247 18.3135 33.0532C18.3208 33.0817 18.3359 33.1077 18.3572 33.128L18.8868 33.6478ZM15.2051 33.6478C15.2443 33.6812 15.26 33.7361 15.2541 33.7871L15.1266 34.5187C15.1031 34.6501 15.2404 34.7443 15.3561 34.6835L16.0132 34.3382C16.0359 34.3265 16.0612 34.3204 16.0867 34.3204C16.1123 34.3204 16.1376 34.3265 16.1603 34.3382L16.8154 34.6835C16.9331 34.7443 17.0704 34.6501 17.0449 34.5187L16.9214 33.7871C16.9165 33.7619 16.918 33.736 16.9259 33.7116C16.9338 33.6872 16.9478 33.6653 16.9665 33.6478L17.5 33.128C17.5206 33.1071 17.535 33.0809 17.5416 33.0523C17.5482 33.0237 17.5468 32.9938 17.5374 32.9659C17.5281 32.9381 17.5112 32.9134 17.4887 32.8946C17.4661 32.8757 17.4388 32.8635 17.4098 32.8593L16.6762 32.7514C16.6509 32.7481 16.6268 32.7387 16.6059 32.724C16.5851 32.7093 16.5681 32.6898 16.5565 32.6671L16.227 32.0002C16.2136 31.9742 16.1934 31.9525 16.1685 31.9373C16.1436 31.9221 16.1149 31.9141 16.0858 31.9141C16.0566 31.9141 16.028 31.9221 16.0031 31.9373C15.9782 31.9525 15.9579 31.9742 15.9445 32.0002L15.617 32.6671C15.6054 32.6898 15.5884 32.7093 15.5676 32.724C15.5467 32.7387 15.5226 32.7481 15.4973 32.7514L14.7618 32.8593C14.7326 32.8634 14.7052 32.8757 14.6827 32.8947C14.6602 32.9137 14.6435 32.9386 14.6345 32.9666C14.6255 32.9947 14.6246 33.0247 14.6318 33.0532C14.6391 33.0817 14.6542 33.1077 14.6755 33.128L15.2051 33.6478ZM11.5233 33.6478C11.5626 33.6812 11.5783 33.7361 11.5724 33.7871L11.4449 34.5187C11.4214 34.6501 11.5587 34.7443 11.6744 34.6835L12.3315 34.3382C12.3542 34.3265 12.3795 34.3204 12.405 34.3204C12.4306 34.3204 12.4558 34.3265 12.4786 34.3382L13.1337 34.6835C13.2514 34.7443 13.3887 34.6501 13.3632 34.5187L13.2397 33.7871C13.2347 33.7619 13.2363 33.736 13.2442 33.7116C13.2521 33.6872 13.2661 33.6653 13.2848 33.6478L13.8183 33.128C13.8389 33.1071 13.8533 33.0809 13.8599 33.0523C13.8665 33.0237 13.8651 32.9938 13.8557 32.9659C13.8464 32.9381 13.8295 32.9134 13.807 32.8946C13.7844 32.8757 13.7571 32.8635 13.7281 32.8593L12.9945 32.7514C12.9692 32.7481 12.9451 32.7387 12.9242 32.724C12.9034 32.7093 12.8864 32.6898 12.8748 32.6671L12.5453 32.0002C12.5319 31.9742 12.5117 31.9525 12.4868 31.9373C12.4618 31.9221 12.4332 31.9141 12.4041 31.9141C12.3749 31.9141 12.3463 31.9221 12.3214 31.9373C12.2964 31.9525 12.2762 31.9742 12.2628 32.0002L11.9353 32.6671C11.9237 32.6898 11.9067 32.7093 11.8859 32.724C11.865 32.7387 11.8409 32.7481 11.8156 32.7514L11.0801 32.8593C11.0509 32.8634 11.0235 32.8757 11.001 32.8947C10.9785 32.9137 10.9618 32.9386 10.9528 32.9666C10.9438 32.9947 10.9429 33.0247 10.9501 33.0532C10.9574 33.0817 10.9725 33.1077 10.9937 33.128L11.5233 33.6478Z" fill="#FBAD3E"/>
<path d="M7.83976 33.6497C7.87899 33.6831 7.89468 33.738 7.88879 33.789L7.7613 34.5206C7.73776 34.6521 7.87506 34.7462 7.99079 34.6854L8.64789 34.3402C8.67064 34.3285 8.69586 34.3224 8.72145 34.3224C8.74703 34.3224 8.77225 34.3285 8.795 34.3402L9.45014 34.6854C9.56783 34.7462 9.70513 34.6521 9.67963 34.5206L9.55606 33.789C9.55115 33.7639 9.55272 33.7379 9.56061 33.7135C9.56851 33.6892 9.58246 33.6672 9.60117 33.6497L10.1347 33.1299C10.1553 33.109 10.1697 33.0828 10.1763 33.0542C10.1829 33.0256 10.1815 32.9957 10.1721 32.9679C10.1628 32.94 10.1459 32.9153 10.1234 32.8965C10.1008 32.8777 10.0735 32.8655 10.0445 32.8612L9.31087 32.7533C9.28557 32.7501 9.26146 32.7407 9.24061 32.726C9.21976 32.7113 9.20281 32.6917 9.19122 32.669L8.86365 32.0021C8.85048 31.9756 8.83019 31.9534 8.80507 31.9378C8.77995 31.9223 8.75099 31.9141 8.72145 31.9141C8.6919 31.9141 8.66294 31.9223 8.63782 31.9378C8.6127 31.9534 8.59241 31.9756 8.57924 32.0021L8.25167 32.669C8.24008 32.6917 8.22313 32.7113 8.20228 32.726C8.18143 32.7407 8.15732 32.7501 8.13202 32.7533L7.39646 32.8612C7.36732 32.8654 7.33993 32.8777 7.31744 32.8966C7.29494 32.9156 7.27824 32.9406 7.26924 32.9686C7.26023 32.9966 7.2593 33.0266 7.26653 33.0551C7.27377 33.0837 7.28889 33.1096 7.31016 33.1299L7.83976 33.6497Z" fill="#D1DAFE"/>
<path d="M104.007 34.3993C104.071 35.0371 104.34 35.6371 104.773 36.1099C105.206 36.5828 105.78 36.9033 106.41 37.0237C106.975 37.1454 107.52 37.2473 108.085 37.3278V39.7698C108.085 40.8408 109.379 41.4057 110.144 40.6388L112.588 38.2556C112.71 38.1436 112.854 38.0574 113.01 38.0021C113.166 37.9468 113.331 37.9236 113.497 37.9339C117.898 38.1947 122.339 37.8319 126.782 36.9433C127.354 36.8329 127.878 36.5488 128.283 36.1297C128.687 35.7106 128.953 35.1769 129.043 34.6013C129.971 28.9915 129.932 23.5189 129.063 18.1483C128.962 17.5565 128.681 17.0102 128.258 16.5838C127.836 16.1574 127.292 15.8715 126.701 15.7651C120.079 14.6549 113.314 14.6334 106.429 15.7455C105.792 15.8477 105.206 16.1588 104.764 16.6298C104.322 17.1009 104.049 17.7054 103.987 18.3484C103.539 23.6896 103.546 29.0592 104.007 34.3993Z" fill="#E0860E"/>
<path d="M101.504 34.6427C101.569 35.2805 101.837 35.8805 102.27 36.3533C102.703 36.8262 103.277 37.1467 103.907 37.2671C104.472 37.3888 105.017 37.4888 105.582 37.5712V40.0132C105.582 41.0822 106.875 41.6491 107.641 40.8802L110.085 38.499C110.207 38.3869 110.35 38.3004 110.506 38.2448C110.661 38.1892 110.827 38.1656 110.992 38.1753C115.393 38.4382 119.836 38.0753 124.277 37.1867C124.849 37.0764 125.373 36.7923 125.778 36.3731C126.182 35.954 126.448 35.4203 126.538 34.8447C127.468 29.2329 127.427 23.7603 126.558 18.3898C126.457 17.798 126.176 17.2517 125.754 16.8252C125.331 16.3988 124.787 16.1129 124.196 16.0066C117.574 14.8964 110.811 14.8768 103.926 15.987C103.288 16.0889 102.701 16.4 102.259 16.8715C101.817 17.343 101.543 17.9482 101.482 18.5918C101.035 23.9331 101.042 29.3027 101.504 34.6427Z" fill="#FBAD3E"/>
<path d="M101.16 26.7031C101.16 29.3276 101.26 31.9521 101.503 34.6373C101.568 35.2752 101.837 35.8751 102.27 36.348C102.703 36.8208 103.277 37.1413 103.906 37.2618C104.471 37.3834 105.016 37.4835 105.581 37.5658V40.0079C105.581 41.0769 106.874 41.6438 107.641 40.8749L110.085 38.4936C110.206 38.3815 110.349 38.2951 110.505 38.2395C110.661 38.1839 110.826 38.1602 110.991 38.17C115.393 38.4328 119.835 38.0699 124.276 37.1814C124.848 37.071 125.372 36.7869 125.777 36.3678C126.182 35.9487 126.448 35.415 126.538 34.8394C126.679 33.9312 126.82 33.023 126.903 32.1325C124.157 33.3663 120.946 34.0509 117.493 34.0509C110.326 34.0509 104.108 31.0635 101.16 26.7031Z" fill="#FA990E"/>
<path d="M122.615 20.7584C121.21 20.3269 119.806 20.1033 118.4 19.9503C117 19.7928 115.593 19.7155 114.184 19.7189C112.78 19.7208 111.374 19.7836 109.967 19.9483C108.563 20.0994 107.158 20.3269 105.754 20.7584C107.158 21.19 108.563 21.4175 109.969 21.5705C111.374 21.7353 112.78 21.7961 114.184 21.798C115.593 21.8015 117.001 21.7242 118.402 21.5666C119.806 21.4136 121.21 21.19 122.615 20.7584ZM122.615 26.1074C121.21 25.6759 119.806 25.4523 118.4 25.2993C117 25.1417 115.593 25.0645 114.184 25.0678C112.78 25.0678 111.374 25.1306 109.967 25.2954C108.563 25.4484 107.158 25.6739 105.754 26.1074C107.158 26.5389 108.563 26.7665 109.969 26.9175C111.374 27.0823 112.78 27.145 114.184 27.147C115.593 27.1505 117.001 27.0732 118.402 26.9156C119.806 26.7626 121.21 26.537 122.615 26.1074ZM122.615 31.4544C121.21 31.0249 119.806 30.7993 118.4 30.6463C117 30.4894 115.593 30.4128 114.184 30.4168C112.78 30.4168 111.374 30.4796 109.967 30.6443C108.563 30.7954 107.158 31.0229 105.754 31.4544C107.158 31.886 108.563 32.1135 109.969 32.2665C111.374 32.4313 112.78 32.494 114.184 32.494C115.593 32.4975 117.001 32.4202 118.402 32.2626C119.806 32.1096 121.21 31.886 122.615 31.4544Z" fill="white"/>
</svg>
