<svg width="20" height="20" viewBox="0 0 20 20" fill="none" xmlns="http://www.w3.org/2000/svg">
<path d="M10 0C4.48582 0 0 4.48582 0 10C0 15.5142 4.48582 20 10 20C15.5142 20 20 15.5142 20 10C20 4.48582 15.5142 0 10 0ZM12.2558 13.5775C12.5816 13.9033 12.5816 14.43 12.2558 14.7558C12.1785 14.8333 12.0867 14.8948 11.9856 14.9367C11.8845 14.9786 11.7761 15.0001 11.6666 15C11.5572 15.0001 11.4488 14.9786 11.3477 14.9367C11.2466 14.8948 11.1548 14.8333 11.0775 14.7558L6.91082 10.5892C6.585 10.2634 6.585 9.73668 6.91082 9.41086L11.0775 5.24418C11.4033 4.91836 11.93 4.91836 12.2558 5.24418C12.5816 5.57 12.5816 6.09668 12.2558 6.4225L8.67832 10L12.2558 13.5775Z" fill="black"/>
</svg>
