<svg width="22" height="22" viewBox="0 0 22 22" fill="none" xmlns="http://www.w3.org/2000/svg">
<g clip-path="url(#clip0_1653_5631)">
<path d="M18.7937 3.20501C14.5195 -1.06834 7.56838 -1.06834 3.29414 3.20501C-0.978256 7.47835 -0.978256 14.4313 3.29414 18.7046C5.43126 20.8408 8.23782 21.9084 11.0444 21.9084C13.851 21.9084 16.6566 20.8408 18.7937 18.7046C23.0671 14.4313 23.0671 7.47835 18.7937 3.20501ZM15.5643 14.1838C15.9214 14.5409 15.9214 15.1181 15.5643 15.4752C15.4796 15.5601 15.3789 15.6275 15.2681 15.6734C15.1573 15.7193 15.0385 15.7429 14.9186 15.7428C14.7986 15.7429 14.6798 15.7193 14.569 15.6734C14.4582 15.6274 14.3576 15.5601 14.2729 15.4752L11.0444 12.2457L7.81677 15.4742C7.64549 15.6455 7.41325 15.7417 7.17105 15.7418C7.0511 15.7419 6.93232 15.7184 6.82151 15.6724C6.7107 15.6265 6.61005 15.5591 6.52534 15.4742C6.16825 15.1171 6.16825 14.539 6.52534 14.1828L9.75294 10.9543L6.52444 7.72583C6.16735 7.36875 6.16735 6.79063 6.52444 6.43445C6.88062 6.07736 7.45874 6.07736 7.81583 6.43445L11.0443 9.66294L14.2728 6.43445C14.6299 6.07736 15.2071 6.07736 15.5642 6.43445C15.9213 6.79063 15.9213 7.36875 15.5642 7.72583L12.3357 10.9543L15.5643 14.1838Z" fill="black"/>
</g>
<defs>
<clipPath id="clip0_1653_5631">
<rect width="21.9089" height="21.9089" fill="white" transform="translate(0.0898438)"/>
</clipPath>
</defs>
</svg>
