<svg width="135" height="134" viewBox="0 0 135 134" fill="none" xmlns="http://www.w3.org/2000/svg">
<path fill-rule="evenodd" clip-rule="evenodd" d="M38.6042 47.2405L33.1224 28.8412L16.1614 25.4219C-1.88507 52.3966 18.3053 73.9981 39.4454 95.084C60.5313 116.197 82.1328 136.387 109.08 118.341L105.661 101.38L87.2618 95.8981C74.0187 101.054 64.7377 88.9781 55.131 79.3714C45.5243 69.7647 33.448 60.4836 38.6042 47.2405Z" fill="#E35454"/>
<path fill-rule="evenodd" clip-rule="evenodd" d="M15.9181 25.1746L36.7598 46.0163C38.9579 48.2144 42.5672 48.2144 44.7654 46.0163L50.3014 40.4802C52.4996 38.2821 52.4996 34.6728 50.3014 32.4746L29.4598 11.633C27.2616 9.43484 23.6523 9.43484 21.4542 11.633L15.9181 17.169C13.72 19.3943 13.72 22.9765 15.9181 25.1746ZM109.271 118.528L88.5383 97.7947C86.313 95.5695 86.313 91.933 88.5383 89.7078L93.9929 84.2531C96.2182 82.0278 99.8546 82.0278 102.08 84.2531L122.813 104.986C125.038 107.211 125.038 110.848 122.813 113.073L117.358 118.528C115.133 120.753 111.497 120.753 109.271 118.528Z" fill="#BD4949"/>
<path d="M72.7173 8.70599C71.6861 8.43461 70.6006 9.03164 70.3292 10.0629C70.0578 11.0941 70.6549 12.1796 71.6861 12.451C83.9251 15.7889 94.8616 22.2476 103.546 30.9588C112.23 39.67 118.715 50.5793 122.053 62.8183C122.325 63.8495 123.41 64.4737 124.442 64.1752C125.473 63.9038 126.097 62.8183 125.798 61.7871C122.271 48.8424 115.459 37.3361 106.314 28.1908C97.1683 19.0183 85.6619 12.2339 72.7173 8.70599ZM70.6277 24.9614C69.5965 24.69 68.511 25.287 68.2396 26.3183C67.9682 27.3495 68.5653 28.435 69.5965 28.7064C78.3891 31.0945 86.259 35.7621 92.5006 42.0038C98.7422 48.2454 103.41 56.1153 105.798 64.9079C106.069 65.9391 107.155 66.5633 108.186 66.2648C109.217 65.9934 109.842 64.9079 109.543 63.8767C106.965 54.3785 101.972 45.9387 95.2415 39.2358C88.5385 32.5328 80.0987 27.5395 70.6277 24.9614ZM66.3128 39.5614C65.2816 39.29 64.1961 39.8871 63.9247 40.9183C63.6534 41.9495 64.2504 43.035 65.2816 43.3064C71.5775 45.0161 77.195 48.354 81.6727 52.8317C86.1504 57.3094 89.4883 62.9268 91.198 69.2228C91.4694 70.254 92.5549 70.8782 93.5861 70.5796C94.6173 70.3083 95.2415 69.2228 94.943 68.1915C93.0433 61.2172 89.3798 55.0027 84.4407 50.0636C79.5017 45.1246 73.2872 41.461 66.3128 39.5614Z" fill="black"/>
</svg>
