<svg width="50" height="50" viewBox="0 0 50 50" fill="none" xmlns="http://www.w3.org/2000/svg">
<g clip-path="url(#clip0_1653_5584)">
<path fill-rule="evenodd" clip-rule="evenodd" d="M25 50C11.2149 50 0 38.7851 0 25C0 11.2149 11.2149 0 25 0C38.7851 0 50 11.2149 50 25C50 38.7851 38.7851 50 25 50ZM37.9646 33.7823C38.1129 33.7821 38.255 33.7232 38.3598 33.6184C38.4646 33.5136 38.5235 33.3715 38.5237 33.2232V17.5282L25.804 27.629C25.5687 27.816 25.2842 27.9095 24.9999 27.9095C24.7156 27.9095 24.4312 27.8159 24.1958 27.629L11.4762 17.5282V33.2232C11.4764 33.3715 11.5353 33.5136 11.6401 33.6184C11.7449 33.7232 11.887 33.7821 12.0353 33.7823H37.9646ZM36.0154 16.2177L25 24.9652L13.9845 16.2177H36.0154ZM41.11 16.7768V33.2234C41.11 34.9577 39.6989 36.3687 37.9646 36.3687H12.0353C10.3009 36.3687 8.89004 34.9577 8.89004 33.2234V16.7768C8.89004 15.0425 10.301 13.6315 12.0353 13.6315H37.9646C39.6989 13.6314 41.11 15.0425 41.11 16.7768Z" fill="white"/>
</g>
<defs>
<clipPath id="clip0_1653_5584">
<rect width="50" height="50" fill="white"/>
</clipPath>
</defs>
</svg>
