<svg width="50" height="50" viewBox="0 0 50 50" fill="none" xmlns="http://www.w3.org/2000/svg">
<g clip-path="url(#clip0_1653_5757)">
<path d="M47.8693 25.8053C45.703 25.8053 43.6658 26.647 42.1296 28.1762C37.2022 33.8906 37.5274 33.5153 37.4947 33.5479C35.9394 35.1055 33.2812 34.0045 33.2812 31.801C33.2812 26.9612 33.2696 27.3139 33.3084 27.1671L38.7517 6.8122C39.1701 5.24674 38.2407 3.63089 36.6782 3.21155C35.1096 2.79121 33.5061 3.72463 33.0877 5.29009C33.0856 5.30017 33.2048 4.87962 27.3863 25.2207C27.1303 26.1147 25.8047 25.9293 25.8047 24.9989V2.93939C25.8047 1.31849 24.4893 0 22.8724 0C21.2555 0 19.9401 1.31849 19.9401 2.93939V24.3538C19.9401 25.2938 18.596 25.4672 18.3555 24.5614L13.4565 6.24267C13.2529 5.48363 12.767 4.84858 12.0876 4.45646C9.8401 3.15893 7.11704 5.23737 7.79241 7.76478L12.8164 26.5523C13.0599 27.4609 11.8048 27.9744 11.3386 27.1631L4.6988 15.6394C4.23098 14.8284 3.38737 14.3774 2.51543 14.3774C0.599081 14.3774 -0.631812 16.4774 0.340121 18.1645L5.00322 26.2559C6.89614 29.5453 7.89298 33.2738 7.89422 37.069C7.89422 44.1977 13.6823 49.9979 20.7959 49.9979H23.7403C27.5153 49.9979 31.0656 48.5252 33.7368 45.8519L49.3218 29.5069C49.6062 29.2822 49.9663 28.6731 49.9972 28.0533C50.0596 26.8285 49.0913 25.8053 47.8693 25.8053ZM31.7157 34.1285C25.9448 34.8976 21.5932 39.8742 21.5932 45.7056C21.5932 46.1512 21.2323 46.5121 20.7868 46.5121C20.3423 46.5121 19.9804 46.1512 19.9804 45.7056C19.9804 39.0688 24.9338 33.4048 31.502 32.5298C31.9446 32.4713 32.3498 32.7818 32.4083 33.2233C32.4667 33.6648 32.1562 34.0701 31.7157 34.1285Z" fill="#597F9A" fill-opacity="0.8"/>
</g>
<defs>
<clipPath id="clip0_1653_5757">
<rect width="50" height="50" fill="white"/>
</clipPath>
</defs>
</svg>
