<svg width="50" height="50" viewBox="0 0 50 50" fill="none" xmlns="http://www.w3.org/2000/svg">
<g clip-path="url(#clip0_1653_5770)">
<path d="M1.16033 31.0391L3.43196 29.2815C3.59218 29.1582 3.70589 28.9843 3.75454 28.7881C3.80318 28.5919 3.7839 28.3849 3.69983 28.2011L2.79748 26.2349L4.50656 24.9115C4.66675 24.7884 4.7805 24.6147 4.82925 24.4186C4.878 24.2226 4.85887 24.0158 4.77499 23.832L3.88135 21.8867L5.48968 20.7247C5.61115 20.6377 5.70884 20.5216 5.77381 20.3871C5.83878 20.2525 5.86894 20.1038 5.86154 19.9546L5.76324 17.9687L7.84297 17.4521C8.03845 17.4035 8.21179 17.2904 8.33488 17.1309C8.45796 16.9715 8.52355 16.7751 8.52101 16.5737L8.49309 14.4025L10.6032 13.8767C10.7984 13.8281 10.9715 13.715 11.0944 13.5557C11.2173 13.3964 11.2829 13.2003 11.2805 12.9992L11.2465 10.1172L9.45922 10.1381L9.48536 12.3129L7.37436 12.8394C7.17901 12.8881 7.00582 13.0014 6.88289 13.1608C6.75996 13.3203 6.69449 13.5166 6.6971 13.7179L6.72458 15.8883L4.61838 16.4111C4.4174 16.4611 4.24 16.5793 4.11648 16.7455C3.99296 16.9118 3.93098 17.1157 3.94111 17.3226L4.05192 19.5567L2.23594 20.8679C2.06728 20.9888 1.94598 21.1646 1.89285 21.3652C1.83973 21.5657 1.85811 21.7786 1.94484 21.9671L2.84808 23.9327L1.13766 25.2567C0.977388 25.3799 0.863633 25.5538 0.814961 25.7501C0.76629 25.9463 0.785578 26.1532 0.869676 26.3371L1.77337 28.3027L0.0664062 29.6253L1.16033 31.0391Z" fill="#597F9A" fill-opacity="0.8"/>
<path d="M7.26299 50.0002C6.76491 50.0016 6.27639 49.8636 5.85273 49.6017C5.42907 49.3398 5.08719 48.9645 4.8658 48.5183L0.862968 40.5131C0.681116 40.1487 0.586288 39.7471 0.58594 39.3398V38.6892C0.58529 38.2902 0.71825 37.9024 0.963622 37.5878C1.20899 37.2731 1.55265 37.0496 1.9398 36.953L3.48278 36.5676C3.62033 36.5334 3.74775 36.4669 3.8545 36.3737C3.96126 36.2804 4.04429 36.1631 4.09671 36.0314L9.70988 21.9979C10.7057 19.5123 11.9836 17.1492 13.5183 14.9549L17.4033 9.40444C17.4884 9.28305 17.5419 9.14239 17.559 8.99515C17.5762 8.84792 17.5564 8.69873 17.5014 8.56106L14.3828 0.765737L25.8758 0L28.6803 8.41104C28.8107 8.798 28.8503 9.20979 28.7961 9.61452C28.7418 10.0193 28.5951 10.4061 28.3674 10.745L9.67246 38.7804C9.60559 38.8807 9.55972 38.9936 9.5376 39.1122C9.51549 39.2307 9.51759 39.3525 9.54378 39.4703L11.3311 47.513C11.3752 47.7115 11.4857 47.8889 11.6443 48.0162C11.8028 48.1434 12.0001 48.2128 12.2034 48.2128H14.8843C15.1213 48.2128 15.3486 48.307 15.5162 48.4746C15.6838 48.6422 15.7779 48.8695 15.7779 49.1065C15.7779 49.3435 15.6838 49.5708 15.5162 49.7384C15.3486 49.906 15.1213 50.0001 14.8843 50.0001L7.26299 50.0002ZM17.4007 50.0002C17.5066 49.714 17.5622 49.4117 17.5652 49.1066C17.5652 47.6256 16.3648 46.4257 14.8843 46.4257H13.8723L16.5214 42.4531C16.6054 42.3294 16.657 42.1865 16.6716 42.0377L17.7768 29.8509L26.8511 16.2408L22.9357 43.6177C22.9092 43.8036 22.9418 43.9931 23.0288 44.1594C23.1159 44.3258 23.2531 44.4605 23.421 44.5446L30.5701 48.1191C30.6944 48.1806 30.831 48.2129 30.9698 48.2129H33.6507C33.8877 48.2129 34.115 48.3071 34.2826 48.4747C34.4502 48.6423 34.5443 48.8696 34.5443 49.1066C34.5443 49.3436 34.4502 49.5709 34.2826 49.7385C34.115 49.9061 33.8877 50.0002 33.6507 50.0002H17.4007Z" fill="#597F9A" fill-opacity="0.8"/>
</g>
<defs>
<clipPath id="clip0_1653_5770">
<rect width="50" height="50" fill="white"/>
</clipPath>
</defs>
</svg>
