<svg width="50" height="50" viewBox="0 0 50 50" fill="none" xmlns="http://www.w3.org/2000/svg">
<g clip-path="url(#clip0_1653_5590)">
<path fill-rule="evenodd" clip-rule="evenodd" d="M25 50C11.1951 50 0 38.8049 0 25C0 11.1951 11.1951 0 25 0C38.8049 0 50 11.1951 50 25C50 38.8049 38.8049 50 25 50ZM25 8.73898C31.839 8.73898 37.3829 14.2829 37.3829 21.1219C37.3829 27.9606 25 41.2608 25 41.2608C25 41.2608 12.6171 27.9606 12.6171 21.1219C12.6171 14.2829 18.161 8.73898 25 8.73898ZM25 16.202C27.5929 16.202 29.6957 18.3047 29.6957 20.8978C29.6957 23.4907 27.5929 25.5935 25 25.5935C22.4071 25.5935 20.3043 23.4907 20.3043 20.8978C20.3043 18.3047 22.4071 16.202 25 16.202Z" fill="white"/>
</g>
<defs>
<clipPath id="clip0_1653_5590">
<rect width="50" height="50" fill="white"/>
</clipPath>
</defs>
</svg>
