<svg width="46" height="50" viewBox="0 0 46 50" fill="none" xmlns="http://www.w3.org/2000/svg">
<path fill-rule="evenodd" clip-rule="evenodd" d="M27.3678 49.9707H6.74682C6.6508 49.9689 6.5564 49.9456 6.47054 49.9026C6.38468 49.8595 6.30952 49.7979 6.25055 49.722C6.19159 49.6462 6.15032 49.5582 6.12976 49.4644C6.10919 49.3706 6.10986 49.2734 6.1317 49.1798C6.86398 46.3386 7.88917 44.0246 8.85578 41.7399C10.9355 37.024 12.5758 33.2748 10.2618 27.3872C5.92666 16.5202 7.8013 10.0762 10.1739 6.6198C13.0151 2.40187 18.1704 0 24.3215 0C27.4557 0 30.6191 0.644405 33.4896 1.84534C36.2944 2.974 38.7788 4.77448 40.7246 7.08846C43.3608 10.3105 44.2981 14.2941 43.3901 18.5413C42.6871 21.8805 43.2729 23.0228 45.0011 25.8641C45.4697 26.5964 45.7919 27.7094 45.3233 28.5589C45.0889 28.969 44.591 29.4669 43.4779 29.4962H42.0134L42.6578 30.9608C42.7059 31.0792 42.7176 31.2094 42.6915 31.3345C42.6655 31.4597 42.6027 31.5743 42.5113 31.6637L41.7205 32.4546L42.4234 33.4798C42.4994 33.6024 42.5321 33.747 42.5162 33.8904C42.5002 34.0338 42.4366 34.1677 42.3356 34.2706L41.0761 35.5009V37.3462C41.0761 39.6016 39.963 40.8905 38.0005 40.8905H37.9126C36.4773 40.8905 33.0796 40.7733 31.7908 40.4511C31.6736 40.5097 31.2049 40.949 30.3262 43.0287C29.6818 44.4933 29.096 46.2507 28.6273 47.686L27.9536 49.5899C27.9029 49.703 27.8207 49.7991 27.7168 49.8666C27.6129 49.9341 27.4917 49.9703 27.3678 49.9707ZM13.1909 26.8893C13.0636 26.8864 12.9401 26.8459 12.8359 26.773C12.7316 26.7 12.6513 26.5978 12.605 26.4792C11.1213 23.0103 10.2969 19.2952 10.1739 15.5243C10.1739 11.1306 11.6384 7.73287 14.6261 5.44815C16.4793 4.06954 18.6411 3.16457 20.9237 2.81195C23.1621 2.42916 25.4484 2.41926 27.69 2.78266C27.8202 2.84081 27.9275 2.94053 27.995 3.06618C28.0625 3.19183 28.0863 3.33632 28.0629 3.47701C28.0394 3.6177 27.97 3.74663 27.8654 3.84361C27.7608 3.94058 27.627 4.00012 27.485 4.01289C25.4126 3.5992 23.2788 3.60108 21.2072 4.01841C19.1356 4.43575 17.1675 5.26023 15.417 6.44405C12.7808 8.49443 11.4334 11.5407 11.4334 15.5243C11.4334 18.5413 12.2536 22.1734 13.7767 25.9813C13.8144 26.0778 13.8283 26.182 13.8171 26.2851C13.806 26.3881 13.7701 26.487 13.7126 26.5732C13.6551 26.6594 13.5777 26.7305 13.4869 26.7805C13.396 26.8304 13.2945 26.887 13.1909 26.8893ZM5.78021 36.116H0.507801C0.363967 36.0848 0.235148 36.0053 0.142764 35.8907C0.0503807 35.7762 0 35.6334 0 35.4862C0 35.3391 0.0503807 35.1963 0.142764 35.0817C0.235148 34.9672 0.363967 34.8877 0.507801 34.8565H5.78021C5.92404 34.8877 6.05286 34.9672 6.14524 35.0817C6.23763 35.1963 6.28801 35.3391 6.28801 35.4862C6.28801 35.6334 6.23763 35.7762 6.14524 35.8907C6.05286 36.0053 5.92404 36.0848 5.78021 36.116ZM5.78021 31.5466C5.69223 31.5462 5.60526 31.5278 5.52466 31.4925C5.44406 31.4573 5.37153 31.4059 5.31155 31.3415L1.59157 27.2994C1.49035 27.1727 1.44057 27.0126 1.45218 26.8509C1.46379 26.6892 1.53592 26.5378 1.6542 26.4269C1.77247 26.316 1.9282 26.2538 2.09032 26.2526C2.25244 26.2515 2.40904 26.3114 2.52889 26.4206L6.24887 30.4921C6.32528 30.5845 6.3744 30.6964 6.3907 30.8152C6.407 30.9339 6.38984 31.0549 6.34114 31.1645C6.29245 31.2741 6.21415 31.3679 6.11505 31.4354C6.01596 31.5029 5.9 31.5414 5.78021 31.5466Z" fill="#7897AC"/>
<path fill-rule="evenodd" clip-rule="evenodd" d="M2.06179 44.7281C1.942 44.7229 1.82604 44.6844 1.72694 44.6169C1.62785 44.5494 1.54955 44.4556 1.50085 44.346C1.45216 44.2365 1.43499 44.1155 1.4513 43.9967C1.4676 43.8779 1.51672 43.766 1.59313 43.6736L5.31311 39.6314C5.36228 39.5501 5.42886 39.4806 5.50806 39.428C5.58727 39.3753 5.67713 39.3409 5.77121 39.3271C5.86529 39.3133 5.96126 39.3205 6.05223 39.3482C6.14319 39.3759 6.22691 39.4234 6.29737 39.4872C6.36782 39.5511 6.42328 39.6297 6.45975 39.7175C6.49622 39.8054 6.51281 39.9001 6.50832 39.9951C6.50384 40.0901 6.47839 40.1829 6.4338 40.2669C6.38921 40.3509 6.32659 40.424 6.25042 40.4809L2.53045 44.5231C2.47046 44.5874 2.39794 44.6388 2.31734 44.6741C2.23673 44.7093 2.14977 44.7277 2.06179 44.7281Z" fill="#7897AC"/>
</svg>
