<svg width="120" height="120" viewBox="0 0 120 120" fill="none" xmlns="http://www.w3.org/2000/svg">
<path d="M72.5727 53.5453C71.5977 53.8828 69.8852 53.9953 68.0727 53.9953C65.7602 53.9953 63.2852 53.8203 61.9727 53.7078C62.2727 55.0203 62.1477 56.1453 61.9727 57.1578C63.7352 57.3703 69.3102 57.9203 73.5602 56.9203C77.9602 55.8828 80.2977 52.1328 80.7477 51.3328C80.5352 50.4828 80.2977 49.6703 80.0477 48.8828C78.3852 51.1203 75.1852 52.6328 72.5727 53.5453Z" fill="#597F9A" fill-opacity="0.8"/>
<path d="M56.8969 30.2484C56.9844 30.2859 57.0594 30.2984 57.1469 30.3484C58.3469 30.9109 58.9844 33.6109 58.4344 35.8234C58.0219 37.4859 56.6469 40.1859 51.9969 40.1859H51.8469L51.4844 41.9984C53.2844 43.2984 54.8594 44.5359 56.1594 45.6859C56.2219 45.7234 56.2719 45.7734 56.3219 45.8359C59.3094 48.4984 60.8219 50.6359 61.5469 52.4359C64.1969 52.6734 70.2219 53.0609 72.1469 52.3859C74.9219 51.4234 78.3844 49.7609 79.5219 47.3359C75.6469 36.1984 69.4094 31.3234 68.5594 30.6984L57.7094 28.5859L56.8844 30.2609L56.8969 30.2484Z" fill="#597F9A" fill-opacity="0.8"/>
<path d="M52.1104 38.898C55.5604 38.848 56.7854 37.1355 57.1979 35.623C57.7479 33.6105 56.9979 31.6605 56.6229 31.4605C55.7979 31.073 54.9104 31.123 54.4104 31.2105C54.4854 33.1105 54.1979 35.9355 52.3229 37.848L52.1104 38.8855V38.898ZM14.5604 12.898L20.7979 14.0355C20.8995 14.0523 20.9954 14.0943 21.0766 14.1576C21.1579 14.221 21.2219 14.3037 21.263 14.3982C21.304 14.4927 21.3207 14.5959 21.3115 14.6986C21.3023 14.8012 21.2675 14.8998 21.2104 14.9855L19.8104 17.148C19.7238 17.2787 19.6864 17.4357 19.7047 17.5914C19.723 17.747 19.7959 17.8911 19.9104 17.998C20.1479 18.223 20.5104 18.248 20.7729 18.048L25.4104 14.5605C25.8479 14.2355 26.4104 14.148 26.9229 14.323C29.1104 15.0605 36.7354 17.4855 43.1729 17.4855C43.3229 17.4855 43.4604 17.5355 43.5729 17.6355C43.6604 17.7105 52.4979 25.148 57.5354 27.2605L66.9354 29.098C64.0979 26.2605 57.5604 19.8855 52.9354 16.748C48.3104 13.623 40.1854 12.098 28.0979 12.098C22.4104 12.098 17.3479 11.4605 14.8479 11.073C14.5854 11.0355 14.3479 11.098 14.1479 11.2605C13.9479 11.423 13.8229 11.648 13.7979 11.9105C13.7479 12.3855 14.0854 12.823 14.5479 12.9105L14.5604 12.898ZM36.3479 27.898C35.0479 29.323 34.3979 34.7605 36.6979 37.9355C38.1104 39.8855 40.3604 40.5855 43.2854 40.098C41.3729 39.798 39.6979 39.073 38.7479 37.948C37.4479 36.423 36.1604 32.273 37.0229 28.9605C37.2979 27.8855 37.7854 26.973 38.4479 26.223C37.7979 26.5605 37.0729 27.0855 36.3479 27.8855V27.898Z" fill="#597F9A" fill-opacity="0.8"/>
<path d="M49.3749 27.4609C49.2418 27.4474 49.1165 27.3916 49.0175 27.3016C48.9185 27.2116 48.851 27.0922 48.8249 26.9609L48.4374 24.9609C46.1374 26.4734 42.2624 25.8734 41.3624 25.6984C39.7374 26.3484 38.6874 27.5484 38.2374 29.2859C37.4249 32.3859 38.7624 36.0484 39.6999 37.1484C40.9499 38.6109 44.2249 39.4109 47.4374 38.8234C47.4749 38.8109 47.5124 38.7984 47.5499 38.7734C47.6499 38.7234 47.7624 38.7234 47.8624 38.7359C48.5499 38.5859 49.2374 38.3734 49.8874 38.0734C54.0124 36.2109 53.1124 30.2984 52.9999 29.6234C52.7374 28.1359 50.2999 27.5609 49.3874 27.4609H49.3749ZM29.6249 86.8484C29.7999 86.8609 30.0124 86.7609 30.1124 86.6109C30.7249 85.6859 32.0499 83.7359 33.6999 81.4109L33.7124 81.3984C36.7999 77.0359 41.0374 71.3609 43.7499 68.9484C44.0749 68.4234 46.0499 65.2859 48.5999 61.3359C51.0249 57.5734 54.3874 48.4109 55.1124 46.4109C53.9374 45.3859 52.5374 44.2859 50.9499 43.1234L48.0249 47.1484C47.6749 48.2484 44.5374 58.2234 44.0124 60.6859C43.7249 62.0359 42.1874 64.0609 40.0624 66.8484C37.6874 69.9609 34.7374 73.8359 32.6499 78.0234C32.6124 78.0984 32.5499 78.1734 32.4874 78.2234L23.9374 85.2484C23.834 85.3299 23.766 85.4481 23.7473 85.5784C23.7287 85.7088 23.761 85.8413 23.8374 85.9484C23.9749 86.1609 24.2374 86.2484 24.4999 86.1359L28.3499 84.4359C28.4492 84.395 28.5571 84.3793 28.664 84.3902C28.7709 84.4011 28.8734 84.4383 28.9624 84.4984C29.1374 84.6234 29.2374 84.8359 29.2249 85.0484L29.1499 86.2859C29.1374 86.5859 29.3499 86.8359 29.6499 86.8484H29.6249Z" fill="#597F9A" fill-opacity="0.8"/>
<path d="M35.1611 82.0328L34.6236 82.2703C33.0361 84.5203 31.7486 86.4078 31.1486 87.3078C30.8111 87.7953 30.2611 88.0953 29.6736 88.0953H29.4736C28.5611 88.0328 27.8236 87.1828 27.8736 86.2203V86.0078L24.9611 87.2953C24.7861 87.3703 24.5986 87.4078 24.4111 87.4328C23.2236 88.7203 15.7861 96.7453 14.6486 98.0203C13.9611 98.7828 12.4236 99.7828 10.9361 100.758C9.64857 101.595 8.19857 102.545 7.84857 103.008C7.13607 103.958 7.23607 105.37 8.13607 106.595C8.47357 107.058 10.1861 107.283 13.2361 106.72C13.6361 106.645 13.9361 106.32 13.9861 105.908L14.4736 101.82C14.5486 101.208 14.8986 100.658 15.4236 100.333L31.8986 90.2078C31.9861 90.1703 34.7736 88.7828 38.5861 87.0578C36.8986 85.5703 35.6861 83.1578 35.1736 82.0453L35.1611 82.0328ZM105.299 82.1578C105.749 77.8703 106.061 74.7953 106.061 74.2453C106.061 73.8078 105.436 72.0578 97.4361 67.6703C93.1861 65.3453 82.7986 61.0328 82.6861 60.9953C82.5802 60.9508 82.4883 60.8786 82.4201 60.7861C82.3518 60.6937 82.3099 60.5846 82.2986 60.4703C82.0486 57.7828 81.6361 55.2953 81.1236 53.0078C79.9861 54.6078 77.6111 57.2328 73.8111 58.1203C71.8111 58.5953 69.5861 58.7453 67.5486 58.7453C64.9486 58.7453 62.6986 58.5078 61.7111 58.3828C61.6611 58.6578 61.6236 58.9328 61.5986 59.2078C61.3111 62.9078 58.3236 65.2953 53.5986 67.9453C49.2611 70.3953 40.1361 79.7578 40.0486 79.8578C39.9986 79.9203 39.9236 79.9578 39.8486 79.9953L36.2986 81.5453C36.8111 82.6828 38.1361 85.2828 39.8361 86.4828C44.0236 84.6078 49.1361 82.4828 53.2486 81.1953C59.2861 79.3203 66.5611 73.1203 70.1111 69.8578L70.1361 69.8328C71.4361 68.6328 72.2486 67.8328 72.2736 67.7953C72.5111 67.5453 72.9111 67.5453 73.1611 67.7953C73.4111 68.0328 73.4111 68.4328 73.1611 68.6828C73.0736 68.7703 72.5236 69.3203 71.6861 70.1203C75.2236 71.6328 88.5861 77.1203 95.9486 77.1203H96.1861C96.5111 77.1203 96.7861 77.3703 96.8111 77.7078C96.8111 77.7203 96.9111 79.1578 97.2861 82.5953C98.3111 82.8953 101.886 83.7453 105.286 82.1703L105.299 82.1578ZM111.774 106.183L104.424 104.045C103.561 103.795 102.999 102.97 103.099 102.07C103.799 95.8328 104.574 88.9328 105.149 83.5578C103.661 84.1328 102.174 84.3328 100.874 84.3328C99.4236 84.3328 98.2111 84.0953 97.4361 83.9078C97.4986 84.4828 97.5736 85.0953 97.6486 85.7578C98.3486 91.5828 98.6361 103.858 98.6361 103.983C98.6388 104.122 98.5948 104.259 98.5111 104.37C97.6361 105.545 97.5611 106.808 98.2986 107.82C98.9236 108.67 99.9611 109.12 100.749 108.858C102.274 108.345 107.386 108.383 111.411 108.483C112.086 108.483 112.611 107.958 112.611 107.308C112.611 106.783 112.261 106.32 111.761 106.183H111.774Z" fill="#597F9A" fill-opacity="0.8"/>
</svg>
