<svg width="120" height="120" viewBox="0 0 120 120" fill="none" xmlns="http://www.w3.org/2000/svg">
<path d="M18.043 48.611C21.6379 55.6671 23.9041 63.4303 24.3675 71.0733V95.1537H31.3994V70.7538C30.8912 62.1184 28.3539 53.3594 24.3056 45.4176L18.043 48.611ZM97.2355 39.519C94.5573 29.6405 90.1417 18.7563 84.8026 8.86754L78.6153 12.2049C83.7038 21.6368 87.9065 31.989 90.4507 41.3628C94.0834 54.7117 94.8079 64.7903 94.9211 76.4019V95.1537H101.953V76.4019C101.834 64.5036 101.073 53.6196 97.2355 39.519ZM59.7617 89.2937V92.8592C59.7617 94.5965 61.3378 96.0111 63.2777 96.0111C65.2176 96.0111 66.7937 94.5965 66.7937 92.8592V89.2937H87.8578L87.836 73.2307L73.218 74.0535C71.9176 78.3694 67.9213 81.2811 63.374 81.2811H63.2299C58.9207 81.2227 55.1164 78.6922 53.4581 75.1659L38.1976 76.0046V89.2937H59.7617ZM63.1746 26.0972C63.739 30.5938 61.1639 35.0188 56.8878 36.7824C52.8465 38.4511 48.4722 37.6991 45.5331 35.1205L30.8233 42.5272C32.131 45.2423 33.3311 48.1012 34.3538 51.097L55.5831 45.4077L56.5102 48.7828C56.929 50.3109 58.8553 51.255 60.8123 50.9048C62.6256 50.5727 63.8077 48.8096 63.3051 46.9665L62.3781 43.5673L82.0883 38.2263C80.0934 31.8687 77.677 25.7892 74.8731 20.1118L63.1746 26.0972ZM26.057 34.1042C26.5275 34.7982 26.9231 35.6549 27.3771 36.3909L47.9399 25.9907L49.5605 29.0604C50.237 30.3273 52.1665 31.1205 54.206 30.2828C55.8628 29.5986 56.7502 27.6355 55.8611 25.9256L54.2131 22.7804L71.5526 13.9099C69.6868 10.63 67.7486 7.45271 65.6744 4.52087C63.9748 2.11384 61.331 0.50705 58.4261 0.105293C55.4938 -0.306778 52.6337 0.500253 50.3436 2.35762L47.3323 4.79887C43.3108 2.38598 38.2537 3.11566 35.0162 6.22377C31.9155 9.1903 30.8101 13.7777 31.9155 17.5923L28.1961 20.1228C23.9899 23.5321 23.049 29.6715 26.057 34.1042ZM84.0498 44.98L70.4263 48.6727C70.0611 53.1302 66.6983 56.975 62.0862 57.8196C57.8629 58.6057 53.6672 56.9441 51.3185 53.847L36.213 57.8768C37.1053 61.5249 37.7586 65.2246 38.0757 68.9752L59.4458 67.7838L59.6037 71.341C59.6621 72.6937 61.2073 74.2218 63.3257 74.2492C65.4536 74.2049 66.7022 72.6797 66.6186 70.8638L66.4606 67.3924L87.4541 66.2112C86.9195 58.9458 85.7866 51.8225 84.0498 44.98ZM53.3786 113.202C54.8654 117.089 58.7419 120 63.2775 120C67.813 120 71.6897 117.089 73.1763 113.202H87.8892V96.3257H73.1763C71.6895 100.212 67.813 103.043 63.2775 103.043C58.7419 103.043 54.8652 100.212 53.3786 96.3257H38.1969L38.2476 113.202H53.3786Z" fill="#7A99AE"/>
</svg>
