<svg width="120" height="120" viewBox="0 0 120 120" fill="none" xmlns="http://www.w3.org/2000/svg">
<path d="M28.2017 79.1484V110.592H30.3579V79.1109L28.2017 79.1484ZM89.6267 79.1297V110.592H91.7829V79.1297H89.6267ZM95.2704 71.4234H86.2892C84.9954 71.3297 85.2579 69.4547 86.5517 69.6797H95.2704C96.4142 69.6984 96.4142 71.4234 95.2704 71.4234ZM93.8454 45.8672V67.5234H87.6017V49.7297C87.6017 49.4672 87.5079 49.2047 87.3392 49.0172L78.8642 39.3047V28.7297L93.8454 45.8859V45.8672ZM93.8454 73.5609C94.0142 75.4172 92.6079 77.0859 90.7142 77.0859C88.8204 77.0859 87.4142 75.3984 87.5829 73.5609H93.8267H93.8454ZM87.7892 112.748H93.6579V118.13H87.7892V112.748ZM26.3642 112.748H32.2517V118.13H26.3642V112.748ZM32.3454 73.5609C32.5329 75.4172 31.1079 77.0859 29.2517 77.0859C27.3954 77.0859 25.9517 75.3984 26.1204 73.5609H32.3454ZM33.7329 71.4234H24.7517C23.4204 71.3109 23.7392 69.4359 25.0704 69.6797H33.7329C34.8954 69.6984 34.8954 71.4234 33.7329 71.4234ZM40.9142 28.7297V39.3984L32.5892 49.0172C32.4392 49.2047 32.3267 49.4672 32.3267 49.7297V67.5234H26.1017V45.8484L40.8954 28.7484L40.9142 28.7297ZM76.7079 26.9297V110.236C76.5017 118.561 64.1829 118.655 63.9579 110.236V76.4859C63.9579 74.2172 62.1392 72.4172 59.8892 72.4172C57.6392 72.4172 55.8204 74.2359 55.8204 76.4859V90.1172C55.6329 98.4609 43.2954 98.5359 43.0892 90.1172V26.9297H47.4017C48.3954 27.9984 49.4454 29.0484 50.7017 29.8547C56.9267 34.3359 66.1329 33.4922 71.5329 28.0734C71.9079 27.6797 72.2642 27.3047 72.6392 26.9297H76.7267H76.7079Z" fill="#597F9A" fill-opacity="0.8"/>
<path d="M71.2521 25.1468C65.8521 32.3655 54.1521 32.328 48.7333 25.1468C41.2521 16.0718 48.1896 1.6343 59.9833 1.87805C71.7771 1.6343 78.7333 16.0718 71.2521 25.1468Z" fill="#597F9A" fill-opacity="0.8"/>
</svg>
