<svg width="120" height="120" viewBox="0 0 120 120" fill="none" xmlns="http://www.w3.org/2000/svg">
<g clip-path="url(#clip0_1653_5639)">
<path d="M109.655 115.832H95.1724V95.1425H90.8339C90.4696 96.9948 89.6202 98.7173 88.3724 100.134C87.1246 101.551 85.5232 102.611 83.7316 103.206L83.4124 103.312L82.1048 99.3866L82.4231 99.2806C83.7264 98.8474 84.8601 98.0145 85.663 96.9002C86.466 95.786 86.8975 94.4471 86.8962 93.0737V91.0046H95.172C97.4536 91.0046 99.3098 89.1481 99.3098 86.8667H83.1949C81.9694 86.8656 80.7711 87.2283 79.752 87.909L68.7825 95.222L37.0751 91.2587L34.8942 66.177H31.0343C27.612 66.177 24.8273 63.3924 24.8273 59.9701C24.8273 58.3817 25.4278 56.9312 26.4129 55.8322C25.4278 54.7332 24.8273 53.2827 24.8273 51.6943V26.8667C24.8273 25.2784 25.4278 23.8276 26.4129 22.7288C25.4278 21.6296 24.8273 20.1793 24.8273 18.5909C24.826 17.2454 25.2642 15.9363 26.0754 14.8627C20.1084 6.07789 10.5724 0.658672 0 0.03125V26.7322L9.5768 100.155C11.0503 111.451 20.7523 119.97 32.1443 119.97H109.655C110.796 119.97 111.724 119.042 111.724 117.901C111.724 116.76 110.796 115.832 109.655 115.832ZM85.046 114.689C83.9588 112.514 82.0903 110.894 79.7843 110.125L77.9665 109.519L79.2748 105.594L81.0926 106.199C84.4472 107.318 87.1655 109.675 88.747 112.838L85.046 114.689Z" fill="#597F9A" fill-opacity="0.8"/>
<path d="M31.0339 53.7652H39.3097C40.4504 53.7652 41.3788 52.837 41.3788 51.6961V26.8685C41.3788 25.7278 40.4506 24.7995 39.3097 24.7995H31.0339C29.8932 24.7995 28.9648 25.7276 28.9648 26.8685V51.6961C28.9648 52.8368 29.893 53.7652 31.0339 53.7652ZM31.0339 20.6616H39.3097C40.4504 20.6616 41.3788 19.7334 41.3788 18.5925C41.3788 17.4518 40.4506 16.5234 39.3097 16.5234H31.0339C29.8932 16.5234 28.9648 17.4516 28.9648 18.5925C28.9648 19.7334 29.893 20.6616 31.0339 20.6616ZM31.0339 62.0409H39.3097C40.4504 62.0409 41.3788 61.1128 41.3788 59.9719C41.3788 58.8312 40.4506 57.9028 39.3097 57.9028H31.0339C29.8932 57.9028 28.9648 58.8309 28.9648 59.9719C28.9648 61.1128 29.893 62.0409 31.0339 62.0409ZM117.93 99.2822H99.3097V103.42H117.93C119.071 103.42 119.999 102.492 119.999 101.351C119.999 100.211 119.071 99.2822 117.93 99.2822ZM117.93 33.0755H78.2649C77.9931 33.0747 77.7238 33.1279 77.4727 33.2319C77.2216 33.336 76.9936 33.4888 76.802 33.6816L73.2699 37.2134H45.5166V41.3512H73.2699L76.802 44.883C76.9936 45.0758 77.2216 45.2286 77.4727 45.3327C77.7238 45.4367 77.9931 45.4899 78.2649 45.4891H117.93C119.071 45.4891 119.999 44.561 119.999 43.4201V35.1443C119.999 34.0036 119.071 33.0755 117.93 33.0755ZM113.792 95.1443C114.933 95.1443 115.861 94.2162 115.861 93.0752C115.861 91.9345 114.933 91.0062 113.792 91.0062H102.334C101.606 92.2602 100.564 93.3027 99.3097 94.0308V95.1441H113.792V95.1443ZM113.792 107.558H99.3097V111.696H113.792C114.933 111.696 115.861 110.768 115.861 109.627C115.861 108.486 114.933 107.558 113.792 107.558Z" fill="#597F9A" fill-opacity="0.8"/>
</g>
<defs>
<clipPath id="clip0_1653_5639">
<rect width="120" height="120" fill="white"/>
</clipPath>
</defs>
</svg>
