<svg width="120" height="120" viewBox="0 0 120 120" fill="none" xmlns="http://www.w3.org/2000/svg">
<path d="M59.9627 20.4802C65.6182 20.4802 70.2028 15.8955 70.2028 10.2401C70.2028 4.58464 65.6182 0 59.9627 0C54.3073 0 49.7227 4.58464 49.7227 10.2401C49.7227 15.8955 54.3073 20.4802 59.9627 20.4802Z" fill="#597F9A" fill-opacity="0.8"/>
<path d="M117.903 17.8034C116.95 15.4728 114.287 14.356 111.957 15.3094L92.112 23.4267L72.9933 24.2735H46.8237L27.8855 23.4267L8.04075 15.3092C5.71036 14.3562 3.04786 15.4725 2.09442 17.8031C1.14122 20.1338 2.25778 22.796 4.5884 23.7495L25.1539 32.1617C25.6308 32.3567 26.1374 32.4695 26.652 32.4954L46.8237 33.5056V61.1199L31.4761 77.6224C28.5399 80.7792 29.8568 85.9226 33.9429 87.2843C62.3546 96.7531 60.3725 96.1474 61.2432 96.255V114.068C61.2432 117.342 63.8975 119.997 67.1717 119.997C70.4459 119.997 73.0465 117.342 73.0465 114.068V33.5145L93.3453 32.4954C93.8599 32.4697 94.3665 32.3568 94.8434 32.1617L115.409 23.7495C117.74 22.796 118.856 20.134 117.903 17.8034ZM61.2434 83.8845L46.4349 78.9492C58.0751 66.4329 57.2998 67.3221 57.7189 66.6799H61.2436V83.8845H61.2434Z" fill="#597F9A" fill-opacity="0.8"/>
</svg>
