<svg width="120" height="120" viewBox="0 0 120 120" fill="none" xmlns="http://www.w3.org/2000/svg">
<path d="M90.814 80.5871C91.3073 80.8421 91.6926 81.2658 91.8996 81.7811C92.1067 82.2963 92.1219 82.8688 91.9423 83.3943L90.4209 87.7914C90.3087 88.1156 90.1255 88.4108 89.8847 88.6553C89.6439 88.8997 89.3516 89.0874 89.0291 89.2047C88.7066 89.3219 88.362 89.3656 88.0204 89.3328C87.6788 89.3 87.3489 89.1913 87.0546 89.0148L63.7399 75.0259C63.5556 74.9152 63.4182 74.7408 63.3537 74.5356C63.2893 74.3305 63.3023 74.1088 63.3902 73.9126L65.6979 68.7657C66.0152 67.9832 66.7741 68.2782 66.9002 68.3439L90.814 80.5871ZM38.4375 90.8066V86.0996L47.4424 83.8281C47.4734 83.901 49.9127 88.7968 49.9127 88.7968L38.4375 90.8066ZM66.5548 102.188H59.9184C59.5532 102.19 59.1949 102.089 58.8842 101.897C58.5735 101.705 58.3228 101.429 58.1606 101.102L49.2131 83.2072C49.0867 82.9545 49.0161 82.6775 49.0061 82.3951C48.9961 82.1127 49.0469 81.8314 49.155 81.5703C49.2632 81.3093 49.4261 81.0745 49.6329 80.8819C49.8397 80.6893 50.0855 80.5434 50.3536 80.454L56.0255 78.5631C57.1036 78.1412 58.073 78.8715 58.4133 79.5522L68.31 99.3454C69.056 100.96 67.4766 102.233 66.5548 102.188ZM11.1007 96.1152C10.849 95.4489 11.0599 94.3511 11.2549 93.9601C11.4508 93.5718 11.7331 93.2335 12.0801 92.9712C12.427 92.7089 12.8295 92.5296 13.2565 92.447C13.2743 92.4437 19.6875 90.8265 19.6875 90.8265V94.0881L14.3998 95.0139C13.2513 95.2144 12.1393 95.5856 11.1007 96.1152ZM34.1152 105.938H24.0098C23.361 105.937 22.7389 105.679 22.2801 105.22C21.8213 104.762 21.5632 104.14 21.5625 103.491V87.7257C21.5615 87.5204 21.6311 87.3209 21.7597 87.1607C21.8882 87.0005 22.0679 86.8894 22.2687 86.8459L35.4654 83.9132C35.5975 83.8803 35.7354 83.8783 35.8684 83.9075C36.0014 83.9367 36.1258 83.9962 36.232 84.0814C36.3382 84.1666 36.4233 84.2751 36.4806 84.3986C36.5379 84.5221 36.566 84.6571 36.5625 84.7932V103.491C36.5618 104.14 36.3037 104.762 35.8449 105.22C35.3861 105.679 34.764 105.937 34.1152 105.938ZM72.8271 82.6647C68.8404 85.985 63.9096 86.3479 63.9096 86.3479L60.7887 80.106C61.755 79.6506 64.2459 77.9837 64.5766 77.7154L72.8271 82.6647ZM93.0443 31.6133L103.807 28.9225C104.505 28.7481 105.233 28.735 105.937 28.8843C106.64 29.0335 107.3 29.3411 107.867 29.7837C108.434 30.2263 108.893 30.7923 109.208 31.4386C109.523 32.085 109.687 32.7947 109.687 33.5139V44.0631H81.7329C82.1757 41.1019 83.4867 38.3385 85.5002 36.1224C87.5136 33.9064 90.139 32.3372 93.0443 31.6133ZM98.4375 57.7923V49.0839C98.438 47.9386 98.0449 46.828 97.324 45.9381H111.129C111.244 45.938 111.354 45.9836 111.435 46.0648C111.517 46.1461 111.562 46.2563 111.562 46.3712V60.504C111.563 60.561 111.551 60.6174 111.53 60.67C111.508 60.7226 111.476 60.7704 111.436 60.8108C111.396 60.8511 111.348 60.8831 111.295 60.9049C111.243 60.9267 111.186 60.938 111.129 60.9381H97.3247C98.0454 60.0481 98.4382 58.9375 98.4375 57.7923Z" fill="#597F9A" fill-opacity="0.8"/>
<path d="M11.2111 98.2031C12.2843 97.5331 13.4771 97.0774 14.7237 96.8611L19.6875 95.9909V103.491C19.689 104.637 20.1449 105.735 20.9552 106.545C21.7655 107.355 22.864 107.811 24.0098 107.812H34.1152C35.2611 107.811 36.3598 107.355 37.1701 106.545C37.9804 105.735 38.4362 104.636 38.4375 103.49V92.7089L50.7877 90.5463L56.4844 101.94C56.8013 102.58 57.291 103.117 57.898 103.492C58.505 103.867 59.2049 104.065 59.9184 104.062H66.5548C70.0235 103.99 71.0421 100.654 69.9888 98.5059L64.7857 88.098C64.7857 88.098 69.0544 87.9553 74.5392 83.6918L86.0909 90.6227C86.7509 91.0188 88.3737 91.4131 89.6707 90.9673C90.2585 90.7601 90.7912 90.4216 91.2285 89.9775C91.6657 89.5333 91.9958 88.9953 92.1937 88.4044L93.7153 84.0073C94.0407 83.0546 94.0132 82.0167 93.6377 81.0827C93.2622 80.1486 92.5637 79.3804 91.6695 78.918L80.9639 73.4367C81.3619 71.859 81.563 70.2381 81.5625 68.6109V62.8125H109.688V94.2516C109.683 98.344 108.055 102.268 105.161 105.161C102.268 108.055 98.344 109.683 94.2516 109.688H9.67734C9.26817 109.688 8.86293 109.608 8.48483 109.451C8.10672 109.295 7.76317 109.065 7.47384 108.776C7.18452 108.487 6.9551 108.143 6.79872 107.765C6.64234 107.387 6.56206 106.982 6.56249 106.573C6.55704 104.897 6.98152 103.247 7.79537 101.782C8.60923 100.316 9.78526 99.0843 11.2111 98.2031ZM96.5625 49.0833V57.7917C96.5616 58.6257 96.2298 59.4253 95.6401 60.0151C95.0503 60.6048 94.2507 60.9366 93.4167 60.9375H66.9956C66.8808 60.9374 66.7707 60.8917 66.6895 60.8105C66.6083 60.7293 66.5626 60.6192 66.5625 60.5044V46.3716C66.5624 46.3146 66.5736 46.2582 66.5953 46.2056C66.6171 46.153 66.6489 46.1051 66.6892 46.0648C66.7294 46.0245 66.7771 45.9925 66.8297 45.9707C66.8823 45.9488 66.9387 45.9376 66.9956 45.9375H93.4167C94.2507 45.9384 95.0503 46.2702 95.6401 46.8599C96.2298 47.4497 96.5616 48.2493 96.5625 49.0833Z" fill="#597F9A" fill-opacity="0.8"/>
<path d="M68.4387 62.8125H79.6887V68.6109C79.6885 69.9385 79.5401 71.262 79.2462 72.5566L68.4387 67.023V62.8125ZM107.439 27.39C106.142 26.8621 104.711 26.7616 103.354 27.1031L92.5913 29.7938C89.2801 30.6189 86.2936 32.4208 84.0198 34.9654C81.746 37.51 80.2901 40.6797 79.8413 44.0625H68.4387V15.4031C68.4402 14.0535 68.9771 12.7596 69.9314 11.8052C70.8858 10.8509 72.1797 10.3141 73.5293 10.3125H102.597C106.471 10.32 107.796 13.2872 107.685 15.5079L107.439 27.39Z" fill="#597F9A" fill-opacity="0.8"/>
</svg>
