<svg width="120" height="120" viewBox="0 0 120 120" fill="none" xmlns="http://www.w3.org/2000/svg">
<path fill-rule="evenodd" clip-rule="evenodd" d="M107.173 65.9978C110.675 66.1725 113.372 69.1529 113.197 72.6545C113.022 76.1558 110.042 78.8527 106.54 78.6777C103.039 78.5028 100.342 75.5227 100.517 72.0211C100.692 68.5195 103.672 65.8228 107.173 65.9978ZM101.735 93.7723V112.38H17.7512V93.7723H6.79688V81.984H54.9776C55.2303 84.4555 56.942 85.9838 59.3835 86.7725C60.0154 86.9765 59.7666 86.9385 60.4306 86.9325C68.4922 86.8598 76.5733 86.9153 84.6346 86.9681C87.3051 86.9856 91.6554 84.1497 94.0856 81.984H112.689V93.7723H101.735ZM75.7818 33.437C75.7818 33.437 79.2454 50.3121 76.652 54.3429C75.091 56.7691 69.0356 60.1855 64.1266 64.7366C64.1372 64.7853 64.1468 64.8333 64.1564 64.8811L67.7876 64.8117C77.3566 64.1997 91.3928 63.8181 95.8647 68.4849C97.1664 69.8434 98.0986 71.5125 98.5725 73.3333C99.0464 75.1541 99.0462 77.0658 98.5719 78.8865L96.4186 78.8757C94.3086 75.2702 92.9622 72.5995 88.2181 72.1478C82.9801 71.6488 82.4982 73.8811 80.1742 74.5963C76.5231 75.7202 69.7342 75.2923 65.7546 75.0609C64.8325 75.0072 61.131 74.7761 60.422 74.8557C58.2154 75.2169 56.3686 76.7088 55.5018 78.6696L12.3421 78.4519L9.65024 68.5274C12.441 67.4529 13.9474 66.1855 17.6761 71.8068L50.5983 70.7241L27.2211 55.2185C18.4357 49.3913 20.6514 51.1476 15.2622 41.2586C17.3629 40.2367 19.1288 39.2791 20.2928 39.7065C20.6166 39.8253 26.8875 46.7966 30.3094 48.7682L34.0844 50.9431C34.0558 49.2816 34.1216 46.9728 34.4427 44.0006C34.6162 42.3943 45.8593 29.7869 45.8067 29.7307C47.9271 27.9122 50.4211 26.5815 53.1123 25.8328C55.8035 25.0841 58.6263 24.9356 61.3813 25.3977C67.5308 26.4285 73.1094 27.8035 75.7818 33.437ZM41.019 45.4812C41.019 45.4812 39.8562 46.0308 39.559 50.2853C39.5041 51.0717 40.885 53.9028 40.784 54.8018L56.4085 63.8035C56.4085 63.8035 61.8382 60.3624 70.3609 50.1403C70.3609 50.1403 70.0398 47.8418 69.722 44.7329L68.0115 48.8378L56.8645 59.244L52.9741 58.0051L51.7371 36.6809C47.329 39.6633 44.7102 41.0301 41.019 45.4812ZM61.1307 7.62501C65.445 7.61757 68.9482 11.1091 68.9557 15.4233C68.9631 19.7376 65.4716 23.2409 61.1574 23.2483C56.8431 23.2555 53.3398 19.7642 53.3324 15.45C53.325 11.1357 56.8165 7.63245 61.1307 7.62501ZM87.9044 75.4421C83.8278 75.054 84.5591 76.709 81.1479 77.759C75.4966 79.4985 64.7888 78.1161 60.7935 78.1608C60.1015 78.3102 59.478 78.6837 59.0198 79.2234C58.5616 79.763 58.2941 80.4388 58.2589 81.1459C58.1864 82.5996 59.0158 83.1765 60.4009 83.6239C60.4009 83.6239 68.4171 84.215 84.6565 83.6594C86.499 83.5963 91.1254 80.3644 92.5734 78.8565C91.2685 76.6269 90.3236 75.6725 87.9044 75.4421Z" fill="#597F9A" fill-opacity="0.8"/>
</svg>
