<svg width="120" height="120" viewBox="0 0 120 120" fill="none" xmlns="http://www.w3.org/2000/svg">
<path d="M48.4531 67.9519L33.7578 70.842C35.0675 76.0616 37.2696 81.0157 40.2669 85.4852L52.6154 76.4796L50.4498 73.5923C49.2217 71.9613 48.5247 69.9923 48.4531 67.9519ZM71.1331 31.6549L65.0023 25.5234L60.8799 32.3939V34.489C60.8846 39.1551 59.5357 43.7225 56.9968 47.6374L55.3128 54.375H58.7173C60.2818 54.3786 61.8268 54.0284 63.2368 53.3506C64.6468 52.6728 65.8853 51.685 66.8595 50.4609C67.8444 49.2226 68.5364 47.7775 68.8837 46.2339C69.2309 44.6902 69.2244 43.088 68.8646 41.5472C68.186 39.8642 68.0396 38.0135 68.4452 36.2448C68.8509 34.476 69.789 32.8741 71.1331 31.6549ZM87.1299 48.0661C87.1266 51.2777 86.3608 54.4426 84.8956 57.3005L83.5862 59.8486C83.3283 60.5407 83.3118 61.2995 83.5393 62.0022C83.7668 62.7048 84.225 63.31 84.8396 63.7195L87.4798 65.4799L92.472 64.2321L89.4941 47.853C89.4409 47.5605 89.2801 47.2984 89.0435 47.1183C88.8068 46.9382 88.5114 46.8532 88.2152 46.8799C87.9191 46.9066 87.6436 47.0431 87.443 47.2626C87.2424 47.4821 87.1311 47.7687 87.1311 48.0661H87.1299Z" fill="#597F9A" fill-opacity="0.8"/>
<path d="M46.4472 56.2503H50.9786L53.436 46.4206C53.4878 46.2119 53.575 46.0137 53.6939 45.8346C55.9372 42.4765 57.1328 38.5278 57.1289 34.4892V31.8753C57.1289 31.5354 57.2212 31.202 57.396 30.9106L63.021 21.5356C63.1676 21.2912 63.368 21.0834 63.6069 20.928C63.8459 20.7726 64.1171 20.6738 64.4 20.639C64.6828 20.6041 64.9699 20.6343 65.2394 20.727C65.5089 20.8198 65.7537 20.9728 65.9552 21.1744L75.3192 30.5382L75.3274 30.5466L75.3302 30.5494L75.3349 30.5546C75.3879 30.609 75.4378 30.6666 75.4842 30.7268C75.4903 30.735 75.4982 30.7421 75.5043 30.7503L80.9688 38.036L86.2971 42.0324L88.6218 36.2199L80.3332 29.5887C80.2025 29.4842 80.0864 29.3626 79.9879 29.2273L66.9482 11.2971C66.4703 10.6402 65.8292 10.1194 65.0883 9.78606C64.3474 9.45275 63.5324 9.31852 62.7237 9.39663C61.9151 9.47474 61.1408 9.76249 60.4774 10.2314C59.814 10.7004 59.2844 11.3343 58.941 12.0706L48.7732 33.8581C47.8603 35.8087 46.4991 37.5157 44.8005 38.8397L40.2536 42.3757V50.0576C40.2537 50.8709 40.4139 51.6762 40.7252 52.4276C41.0364 53.179 41.4927 53.8617 42.0678 54.4367C42.6429 55.0118 43.3257 55.4679 44.0771 55.7791C44.8286 56.0902 45.6339 56.2504 46.4472 56.2503ZM45.4387 27.6207C45.7233 27.9587 45.8794 28.3865 45.8793 28.8284V31.1916L53.6407 14.5603L45.8632 17.3494C45.7591 17.3865 45.6715 17.459 45.6158 17.5543C45.5601 17.6497 45.5398 17.7616 45.5585 17.8704L45.7272 18.8468C45.8111 19.3329 45.7001 19.8324 45.4183 20.2371L42.8186 23.9717C42.7597 24.0563 42.7304 24.158 42.7351 24.261C42.7399 24.364 42.7784 24.4626 42.8449 24.5414L45.4387 27.6207ZM107.186 98.7441L93.5514 67.8284L89.1564 68.9271L89.9533 76.8987C90.5328 82.7321 92.1757 88.4101 94.8009 93.6516L96.3063 96.6628C96.4721 96.9945 96.5359 97.368 96.4895 97.7359C96.4431 98.1039 96.2887 98.4498 96.0457 98.73C95.8027 99.0101 95.482 99.2119 95.1243 99.3098C94.7666 99.4078 94.3879 99.3974 94.0361 99.2801L71.5361 91.7801C71.3025 91.7022 71.0865 91.5791 70.9005 91.4177C70.7144 91.2563 70.562 91.0599 70.4519 90.8396L68.9083 87.7521C67.7732 85.4904 66.1207 83.5281 64.085 82.0247C62.0494 80.5213 59.688 79.519 57.1924 79.0993L55.7224 78.8541L42.4825 88.5103C43.0542 89.2269 43.6469 89.9263 44.26 90.6078C48.59 95.4226 53.7071 99.466 59.3927 102.565L59.403 102.571C66.8989 106.646 75.2039 109.01 83.722 109.496L99.1493 110.353C100.409 110.426 101.668 110.21 102.83 109.719C103.993 109.229 105.027 108.478 105.852 107.524C106.882 106.336 107.554 104.881 107.79 103.327C108.026 101.773 107.816 100.184 107.186 98.7441ZM51.6297 105.343C51.6274 105.371 51.6234 105.398 51.6208 105.426C52.7598 105.191 53.864 104.811 54.9063 104.295C53.4036 103.373 51.9459 102.39 50.5331 101.345C51.3641 102.504 51.7531 103.922 51.6297 105.343ZM45.3644 102.581L39.5285 103.261C39.4564 103.269 39.384 103.273 39.3114 103.273H33.9016C33.1526 103.274 32.4174 103.475 31.7727 103.856C31.1281 104.237 30.5975 104.785 30.2364 105.441L29.5743 106.643C29.4791 106.816 29.4307 107.011 29.4337 107.209C29.4368 107.406 29.4912 107.599 29.5917 107.769C29.6922 107.939 29.8352 108.08 30.0067 108.178C30.1782 108.276 30.3723 108.327 30.5697 108.327H42.28C44.0371 108.326 45.738 107.709 47.0868 106.583C47.4621 106.269 47.7261 105.842 47.8396 105.366C47.953 104.89 47.9099 104.391 47.7165 103.941C47.5232 103.492 47.19 103.116 46.7665 102.871C46.3429 102.626 45.8516 102.525 45.3656 102.581H45.3644Z" fill="#597F9A" fill-opacity="0.8"/>
<path d="M32.3788 64.497C32.5748 64.758 32.699 65.0657 32.7393 65.3895C32.8134 65.9809 32.8994 66.5745 32.9971 67.1666L49.0363 64.0121L50.0406 59.997H46.4467C43.8097 59.997 41.2808 58.9495 39.4161 57.0849C37.5515 55.2203 36.5039 52.6914 36.5038 50.0544V45.2891L32.748 48.2103C30.6273 49.8597 29.2392 52.2759 28.8826 54.9386C28.526 57.6014 29.2294 60.2977 30.8413 62.447L32.3788 64.497ZM39.2013 99.5206L44.9296 98.8529C45.9172 98.738 46.9179 98.869 47.8427 99.2344C45.5742 97.3504 43.4454 95.3044 41.4728 93.1126C40.5713 92.1091 39.7107 91.0698 38.8928 89.997H20.0849C19.2518 89.9987 18.4334 90.2176 17.7107 90.6321C16.988 91.0466 16.3858 91.6424 15.9637 92.3607L15.6555 92.8876C15.06 93.9027 14.8609 95.1022 15.0966 96.2553C15.3324 97.4083 15.9862 98.4335 16.9323 99.1334C19.8824 101.324 23.1752 103.011 26.677 104.126L26.9495 103.63C27.6345 102.386 28.6408 101.348 29.8636 100.626C31.0864 99.9029 32.4807 99.5216 33.9011 99.5216L39.2013 99.5206Z" fill="#597F9A" fill-opacity="0.8"/>
</svg>
