<svg width="120" height="120" viewBox="0 0 120 120" fill="none" xmlns="http://www.w3.org/2000/svg">
<path d="M89.6793 32.1092L37.2296 0L30.5821 9.59527L29.0712 11.7757L66.2811 35.5449C69.0671 37.3051 72.5708 37.545 75.6553 36.1862C77.4873 35.3784 79.5585 35.5879 81.1967 36.7463C83.5661 38.4228 84.2655 41.6963 82.7881 44.1985C82.4472 44.7783 82.0053 45.2924 81.4833 45.7164C79.7255 47.1422 78.5146 49.0586 77.9818 51.2593C77.8236 51.9127 77.5492 52.5325 77.1717 53.0889C75.5468 55.4966 72.2897 56.2717 69.7585 54.8515C68.2546 54.0093 67.2305 52.5529 66.9477 50.8562C66.2367 46.593 63.7914 42.861 60.243 40.6186L24.7868 17.9586L23.2759 20.139L15.9922 30.6521C17.2579 32.0325 20.3983 35.2318 25.7164 39.3098C32.3032 44.3598 43.6719 51.8285 60.4318 58.7301C60.6111 58.8038 60.772 58.9161 60.9031 59.0589C61.0342 59.2017 61.1323 59.3716 61.1905 59.5565C61.2491 59.7416 61.2662 59.9373 61.2406 60.1298C61.2149 60.3222 61.1471 60.5066 61.042 60.6699C61.0232 60.7002 59.0521 63.8026 57.3724 68.1793C55.849 72.1463 54.2561 78.0113 55.3138 83.4191C56.2504 88.2059 55.7099 95.148 53.7076 104.056C52.7038 108.524 51.5632 112.395 50.9303 114.431L63.9006 116.184L66.5287 116.539L71.9404 84.9457C72.5951 81.0097 71.5264 77.0551 69.0099 74.095C67.9482 72.8457 67.5412 71.2092 67.8959 69.6036C68.4716 66.9933 70.9999 65.2293 73.6521 65.5888C74.3628 65.6829 75.0462 65.9242 75.6584 66.2973C77.3259 67.3162 79.3238 67.6481 81.2311 67.2231C81.9303 67.0693 82.6451 67.0613 83.3585 67.2021C85.9834 67.7209 87.8053 70.2075 87.5054 72.8645C87.3555 74.1958 86.7108 75.402 85.6922 76.2598C81.6829 79.634 78.9844 84.4401 78.0963 89.7848L73.3403 117.46L75.9684 117.816L92.13 120L103.43 63.5853C105.891 51.2998 100.365 38.6497 89.6793 32.1092ZM94.0362 58.759C93.7269 59.2074 93.2214 59.4355 92.6799 59.3716L86.9066 58.6833C86.3574 58.6177 85.9159 58.2684 85.7262 57.7488C85.6664 57.587 85.6354 57.4159 85.6348 57.2433C85.6348 56.8894 85.7684 56.548 86.0232 56.2729C87.1772 55.0325 88.3316 53.7924 89.4864 52.5527C89.6195 52.4077 89.7813 52.2921 89.9616 52.2132C90.1418 52.1342 90.3365 52.0937 90.5333 52.0941C90.5988 52.0941 90.6654 52.098 90.7309 52.1074C90.9595 52.1368 91.1774 52.2213 91.3662 52.3534C91.5549 52.4855 91.7088 52.6615 91.8146 52.8661L94.124 57.2739C94.3776 57.7558 94.3441 58.3106 94.0362 58.759Z" fill="#597F9A" fill-opacity="0.8"/>
</svg>
