<svg width="120" height="120" viewBox="0 0 120 120" fill="none" xmlns="http://www.w3.org/2000/svg">
<path d="M95.3921 48.3724C104.887 46.121 110.758 36.5982 108.506 27.1027C106.255 17.6071 96.7326 11.7346 87.2382 13.986C77.7437 16.2374 71.8722 25.7602 74.1239 35.2557C76.3755 44.7513 85.8976 50.6238 95.3921 48.3724Z" fill="#597F9A" fill-opacity="0.8"/>
<path d="M81.5066 65.3419C82.9811 63.9437 84.1548 62.2595 84.9561 60.3922C85.7573 58.5249 86.1692 56.5138 86.1666 54.4819C86.1666 53.7219 86.1066 52.9619 85.9866 52.2219C82.6775 51.3694 79.6154 49.7503 77.0478 47.4955C74.4803 45.2406 72.4793 42.4132 71.2066 39.2419C68.7466 39.1619 66.2466 39.7219 63.9266 40.9419L36.8866 43.9419C34.7187 44.1832 32.6435 44.9548 30.8445 46.1885C29.0455 47.4222 27.5781 49.08 26.5718 51.0154C25.5656 52.9508 25.0515 55.1043 25.075 57.2855C25.0985 59.4667 25.6589 61.6086 26.7066 63.5219L37.4466 83.1419C34.5066 93.7419 34.0266 101.862 33.9666 103.422C33.9466 103.962 34.1466 104.482 34.5066 104.862C34.8666 105.262 35.3666 105.482 35.8866 105.502L62.2866 106.462H62.3466C63.4066 106.462 64.2866 105.622 64.3466 104.562C64.4066 103.562 65.9266 79.9819 81.5066 65.3419ZM43.9466 66.0619L41.4666 61.5219C40.9866 60.6419 40.9666 59.6219 41.4266 58.7419C41.8866 57.8419 42.7266 57.2819 43.7266 57.1619L49.4066 56.5419C47.4066 59.5419 45.5866 62.7219 43.9466 66.0619Z" fill="#597F9A" fill-opacity="0.8"/>
<path d="M14.5952 69.8557C14.4376 70.362 14.4874 70.9102 14.7338 71.3797C14.9802 71.8493 15.403 72.2018 15.9092 72.3597L28.0792 76.1557C28.5798 76.2933 29.1142 76.231 29.5698 75.9822C30.0253 75.7333 30.3664 75.3172 30.521 74.8216C30.6756 74.3261 30.6317 73.7898 30.3986 73.326C30.1654 72.8623 29.7612 72.5071 29.2712 72.3357L17.0992 68.5437C16.5927 68.3859 16.0442 68.4357 15.5743 68.6821C15.1045 68.9285 14.7516 69.3513 14.5932 69.8577L14.5952 69.8557ZM32.5192 83.5397C32.1938 83.1215 31.7158 82.8496 31.1901 82.7836C30.6643 82.7176 30.1339 82.863 29.7152 83.1877L18.5772 91.8477C18.3698 92.0091 18.1961 92.2097 18.0662 92.4383C17.9362 92.6668 17.8526 92.9186 17.82 93.1795C17.7542 93.7063 17.9003 94.2376 18.2262 94.6567C18.5522 95.0757 19.0313 95.3481 19.5581 95.4139C20.0848 95.4798 20.6162 95.3336 21.0352 95.0077L32.1712 86.3457C32.3787 86.1843 32.5523 85.9837 32.6822 85.7553C32.8121 85.5268 32.8957 85.275 32.9282 85.0142C32.9607 84.7534 32.9415 84.4888 32.8717 84.2354C32.8018 83.9821 32.6828 83.745 32.5212 83.5377L32.5192 83.5397ZM24.4952 81.0597C24.4147 80.8096 24.2856 80.5778 24.1155 80.3776C23.9453 80.1775 23.7374 80.0128 23.5035 79.893C23.2697 79.7732 23.0145 79.7006 22.7526 79.6795C22.4908 79.6583 22.2273 79.689 21.9772 79.7697L12.3872 82.8597C12.1372 82.9402 11.9055 83.0691 11.7053 83.2392C11.5051 83.4092 11.3403 83.6171 11.2205 83.8508C11.1006 84.0845 11.0279 84.3396 11.0066 84.6014C10.9853 84.8632 11.0157 85.1266 11.0962 85.3767C11.1767 85.6267 11.3057 85.8584 11.4758 86.0586C11.6458 86.2588 11.8536 86.4236 12.0874 86.5434C12.3211 86.6633 12.5761 86.736 12.838 86.7573C13.0998 86.7786 13.3632 86.7482 13.6132 86.6677L23.2052 83.5737C23.4553 83.4931 23.6871 83.364 23.8873 83.1939C24.0875 83.0237 24.2521 82.8158 24.3719 82.5819C24.4917 82.3481 24.5643 82.093 24.5854 81.8311C24.6066 81.5692 24.576 81.3057 24.4952 81.0557V81.0597Z" fill="#597F9A" fill-opacity="0.8"/>
</svg>
