<svg width="120" height="120" viewBox="0 0 120 120" fill="none" xmlns="http://www.w3.org/2000/svg">
<path d="M88.1267 46.8751C88.1208 45.5608 87.7717 44.2708 87.114 43.1329C86.4562 41.995 85.5127 41.0487 84.3767 40.3876V27.1126C85.517 26.4564 86.4643 25.5111 87.1229 24.3722C87.7816 23.2332 88.1284 21.9408 88.1284 20.6251C88.1284 19.3094 87.7816 18.017 87.1229 16.878C86.4643 15.739 85.517 14.7938 84.3767 14.1376V7.5001C84.3792 7.25317 84.3324 7.00823 84.2391 6.77961C84.1457 6.55099 84.0077 6.34329 83.8331 6.16868C83.6585 5.99407 83.4508 5.85605 83.2222 5.76271C82.9936 5.66938 82.7486 5.62259 82.5017 5.6251H37.5017C37.2548 5.62259 37.0098 5.66938 36.7812 5.76271C36.5526 5.85605 36.3449 5.99407 36.1703 6.16868C35.9957 6.34329 35.8577 6.55099 35.7643 6.77961C35.671 7.00823 35.6242 7.25317 35.6267 7.5001V14.1376C34.4863 14.7938 33.5391 15.739 32.8805 16.878C32.2218 18.017 31.875 19.3094 31.875 20.6251C31.875 21.9408 32.2218 23.2332 32.8805 24.3722C33.5391 25.5111 34.4863 26.4564 35.6267 27.1126V40.3876C34.4863 41.0438 33.5391 41.989 32.8805 43.128C32.2218 44.267 31.875 45.5594 31.875 46.8751C31.875 48.1908 32.2218 49.4832 32.8805 50.6222C33.5391 51.7611 34.4863 52.7064 35.6267 53.3626V66.6376C34.4863 67.2938 33.5391 68.239 32.8805 69.378C32.2218 70.517 31.875 71.8094 31.875 73.1251C31.875 74.4408 32.2218 75.7332 32.8805 76.8722C33.5391 78.0111 34.4863 78.9564 35.6267 79.6126V92.8876C34.4863 93.5438 33.5391 94.489 32.8805 95.628C32.2218 96.767 31.875 98.0594 31.875 99.3751C31.875 100.691 32.2218 101.983 32.8805 103.122C33.5391 104.261 34.4863 105.206 35.6267 105.863V112.5C35.6242 112.747 35.671 112.992 35.7643 113.221C35.8577 113.449 35.9957 113.657 36.1703 113.832C36.3449 114.006 36.5526 114.144 36.7812 114.237C37.0098 114.331 37.2548 114.378 37.5017 114.375H82.5017C82.7486 114.378 82.9936 114.331 83.2222 114.237C83.4508 114.144 83.6585 114.006 83.8331 113.832C84.0077 113.657 84.1457 113.449 84.2391 113.221C84.3324 112.992 84.3792 112.747 84.3767 112.5V105.863C85.517 105.206 86.4643 104.261 87.1229 103.122C87.7816 101.983 88.1284 100.691 88.1284 99.3751C88.1284 98.0594 87.7816 96.767 87.1229 95.628C86.4643 94.489 85.517 93.5438 84.3767 92.8876V79.6126C85.517 78.9564 86.4643 78.0111 87.1229 76.8722C87.7816 75.7332 88.1284 74.4408 88.1284 73.1251C88.1284 71.8094 87.7816 70.517 87.1229 69.378C86.4643 68.239 85.517 67.2938 84.3767 66.6376V53.3626C85.5127 52.7015 86.4562 51.7552 87.114 50.6173C87.7717 49.4794 88.1208 48.1894 88.1267 46.8751ZM46.8767 15.0001C46.8767 14.5028 47.0742 14.0259 47.4259 13.6743C47.7775 13.3226 48.2544 13.1251 48.7517 13.1251C49.249 13.1251 49.7259 13.3226 50.0775 13.6743C50.4292 14.0259 50.6267 14.5028 50.6267 15.0001V18.7501C50.6267 19.2474 50.4292 19.7243 50.0775 20.0759C49.7259 20.4276 49.249 20.6251 48.7517 20.6251C48.2544 20.6251 47.7775 20.4276 47.4259 20.0759C47.0742 19.7243 46.8767 19.2474 46.8767 18.7501V15.0001ZM81.8642 102.9C81.5006 103.029 81.1861 103.268 80.9644 103.584C80.7427 103.9 80.6247 104.277 80.6267 104.663V110.625H39.3767V104.663C39.3787 104.277 39.2607 103.9 39.039 103.584C38.8172 103.268 38.5028 103.029 38.1392 102.9C37.405 102.648 36.768 102.172 36.317 101.54C35.866 100.908 35.6236 100.151 35.6236 99.3751C35.6236 98.5987 35.866 97.8417 36.317 97.2098C36.768 96.5779 37.405 96.1025 38.1392 95.8501C38.5028 95.721 38.8172 95.4819 39.039 95.1662C39.2607 94.8504 39.3787 94.4734 39.3767 94.0876V88.1251H80.6267V94.0876C80.6247 94.4734 80.7427 94.8504 80.9644 95.1662C81.1861 95.4819 81.5006 95.721 81.8642 95.8501C82.5984 96.1025 83.2354 96.5779 83.6864 97.2098C84.1374 97.8417 84.3798 98.5987 84.3798 99.3751C84.3798 100.151 84.1374 100.908 83.6864 101.54C83.2354 102.172 82.5984 102.648 81.8642 102.9ZM46.8767 71.2501V67.5001C46.8767 67.0028 47.0742 66.5259 47.4259 66.1743C47.7775 65.8226 48.2544 65.6251 48.7517 65.6251C49.249 65.6251 49.7259 65.8226 50.0775 66.1743C50.4292 66.5259 50.6267 67.0028 50.6267 67.5001V71.2501C50.6267 71.7474 50.4292 72.2243 50.0775 72.5759C49.7259 72.9276 49.249 73.1251 48.7517 73.1251C48.2544 73.1251 47.7775 72.9276 47.4259 72.5759C47.0742 72.2243 46.8767 71.7474 46.8767 71.2501ZM81.8642 50.4001C81.5006 50.5292 81.1861 50.7682 80.9644 51.084C80.7427 51.3998 80.6247 51.7767 80.6267 52.1626V58.1251H39.3767V52.1626C39.3787 51.7767 39.2607 51.3998 39.039 51.084C38.8172 50.7682 38.5028 50.5292 38.1392 50.4001C37.405 50.1477 36.768 49.6723 36.317 49.0404C35.866 48.4084 35.6236 47.6515 35.6236 46.8751C35.6236 46.0987 35.866 45.3417 36.317 44.7098C36.768 44.0779 37.405 43.6025 38.1392 43.3501C38.5028 43.221 38.8172 42.9819 39.039 42.6662C39.2607 42.3504 39.3787 41.9734 39.3767 41.5876V35.6251H80.6267V41.5876C80.6247 41.9734 80.7427 42.3504 80.9644 42.6662C81.1861 42.9819 81.5006 43.221 81.8642 43.3501C82.5984 43.6025 83.2354 44.0779 83.6864 44.7098C84.1374 45.3417 84.3798 46.0987 84.3798 46.8751C84.3798 47.6515 84.1374 48.4084 83.6864 49.0404C83.2354 49.6723 82.5984 50.1477 81.8642 50.4001Z" fill="#597F9A" fill-opacity="0.8"/>
<path d="M48.75 46.8777C49.2473 46.8777 49.7242 46.6802 50.0758 46.3286C50.4275 45.9769 50.625 45.5 50.625 45.0027V41.2527C50.625 40.7554 50.4275 40.2785 50.0758 39.9269C49.7242 39.5753 49.2473 39.3777 48.75 39.3777C48.2527 39.3777 47.7758 39.5753 47.4242 39.9269C47.0725 40.2785 46.875 40.7554 46.875 41.2527V45.0027C46.875 45.5 47.0725 45.9769 47.4242 46.3286C47.7758 46.6802 48.2527 46.8777 48.75 46.8777ZM48.75 99.3777C49.2473 99.3777 49.7242 99.1802 50.0758 98.8285C50.4275 98.4769 50.625 98 50.625 97.5027V93.7527C50.625 93.2554 50.4275 92.7785 50.0758 92.4269C49.7242 92.0753 49.2473 91.8777 48.75 91.8777C48.2527 91.8777 47.7758 92.0753 47.4242 92.4269C47.0725 92.7785 46.875 93.2554 46.875 93.7527V97.5027C46.875 98 47.0725 98.4769 47.4242 98.8285C47.7758 99.1802 48.2527 99.3777 48.75 99.3777ZM7.5 65.6277H15C15.2464 65.6282 15.4905 65.58 15.7182 65.4861C15.946 65.3921 16.1531 65.2542 16.3275 65.0802L19.5262 61.8777H26.25C26.7473 61.8777 27.2242 61.6802 27.5758 61.3286C27.9275 60.9769 28.125 60.5 28.125 60.0027C28.125 59.5054 27.9275 59.0285 27.5758 58.6769C27.2242 58.3253 26.7473 58.1277 26.25 58.1277H18.75C18.5036 58.1273 18.2595 58.1754 18.0318 58.2694C17.804 58.3633 17.5969 58.5012 17.4225 58.6752L14.2237 61.8777H7.5C7.00272 61.8777 6.52581 62.0753 6.17417 62.4269C5.82254 62.7785 5.625 63.2554 5.625 63.7527C5.625 64.25 5.82254 64.7269 6.17417 65.0786C6.52581 65.4302 7.00272 65.6277 7.5 65.6277ZM16.9688 88.4877L22.2713 83.1852C22.6231 82.8344 22.8214 82.3583 22.8225 81.8615V77.3277L27.5775 72.5765C27.919 72.2228 28.108 71.7492 28.1038 71.2576C28.0995 70.766 27.9023 70.2957 27.5547 69.9481C27.207 69.6004 26.7367 69.4032 26.2451 69.399C25.7535 69.3947 25.2799 69.5837 24.9262 69.9252L19.62 75.2277C19.2695 75.5791 19.0726 76.0552 19.0725 76.5515V81.0815L14.3175 85.8327C14.1384 86.0057 13.9956 86.2126 13.8973 86.4413C13.799 86.6701 13.7473 86.9161 13.7452 87.1651C13.743 87.4141 13.7904 87.661 13.8847 87.8914C13.979 88.1218 14.1182 88.3312 14.2943 88.5072C14.4703 88.6833 14.6797 88.8225 14.9101 88.9168C15.1405 89.011 15.3874 89.0585 15.6364 89.0563C15.8853 89.0542 16.1314 89.0024 16.3601 88.9042C16.5889 88.8059 16.7958 88.6631 16.9688 88.484V88.4877ZM19.0725 38.9202V43.4502C19.0726 43.9465 19.2695 44.4226 19.62 44.774L24.9225 50.0802C25.2761 50.4218 25.7498 50.6108 26.2414 50.6065C26.733 50.6022 27.2033 50.405 27.5509 50.0574C27.8986 49.7097 28.0957 49.2395 28.1 48.7479C28.1043 48.2562 27.9153 47.7826 27.5738 47.429L22.8225 42.674V38.1402C22.8214 37.6434 22.6231 37.1673 22.2713 36.8165L16.9688 31.5177C16.6151 31.1762 16.1415 30.9872 15.6499 30.9915C15.1583 30.9957 14.688 31.1929 14.3403 31.5406C13.9927 31.8882 13.7955 32.3585 13.7912 32.8501C13.787 33.3417 13.976 33.8153 14.3175 34.169L19.0725 38.9202ZM112.5 61.8777H105.776L102.574 58.6752C102.222 58.3247 101.746 58.1278 101.25 58.1277H93.75C93.2527 58.1277 92.7758 58.3253 92.4242 58.6769C92.0725 59.0285 91.875 59.5054 91.875 60.0027C91.875 60.5 92.0725 60.9769 92.4242 61.3286C92.7758 61.6802 93.2527 61.8777 93.75 61.8777H100.474L103.676 65.0802C104.028 65.4307 104.504 65.6276 105 65.6277H112.5C112.997 65.6277 113.474 65.4302 113.826 65.0786C114.177 64.7269 114.375 64.25 114.375 63.7527C114.375 63.2554 114.177 62.7785 113.826 62.4269C113.474 62.0753 112.997 61.8777 112.5 61.8777ZM100.38 75.2277L95.0775 69.9252C94.7239 69.5837 94.2502 69.3947 93.7586 69.399C93.267 69.4032 92.7967 69.6004 92.4491 69.9481C92.1015 70.2957 91.9043 70.766 91.9 71.2576C91.8957 71.7492 92.0847 72.2228 92.4262 72.5765L97.1775 77.3315V81.8615C97.1786 82.3583 97.3769 82.8344 97.7288 83.1852L103.031 88.4877C103.385 88.8293 103.859 89.0183 104.35 89.014C104.842 89.0097 105.312 88.8125 105.66 88.4649C106.007 88.1172 106.204 87.647 106.209 87.1553C106.213 86.6637 106.024 86.1901 105.682 85.8365L100.927 81.0852V76.5552C100.927 76.0589 100.731 75.5829 100.38 75.2315V75.2277ZM93.75 50.6277C93.9965 50.6286 94.2406 50.5806 94.4685 50.4867C94.6963 50.3927 94.9033 50.2546 95.0775 50.0802L100.38 44.774C100.731 44.4226 100.927 43.9465 100.927 43.4502V38.9202L105.682 34.169C105.862 33.996 106.004 33.7891 106.103 33.5604C106.201 33.3316 106.253 33.0856 106.255 32.8366C106.257 32.5876 106.21 32.3407 106.115 32.1103C106.021 31.8799 105.882 31.6705 105.706 31.4945C105.53 31.3184 105.32 31.1792 105.09 31.0849C104.859 30.9907 104.613 30.9432 104.364 30.9454C104.115 30.9475 103.869 30.9993 103.64 31.0975C103.411 31.1958 103.204 31.3386 103.031 31.5177L97.725 36.8202C97.3731 37.171 97.1749 37.6471 97.1738 38.144V42.674L92.4188 47.4252C92.1556 47.6877 91.9764 48.0224 91.9039 48.3869C91.8314 48.7514 91.8689 49.1293 92.0115 49.4725C92.1542 49.8156 92.3956 50.1087 92.7051 50.3144C93.0147 50.5201 93.3784 50.6291 93.75 50.6277Z" fill="#597F9A" fill-opacity="0.8"/>
</svg>
