<svg width="135" height="134" viewBox="0 0 135 134" fill="none" xmlns="http://www.w3.org/2000/svg">
<g clip-path="url(#clip0_1653_5344)">
<path d="M12.9773 127.894C10.0752 127.894 7.72266 125.542 7.72266 122.64V104.341C7.72266 101.438 10.0752 99.0859 12.9773 99.0859C15.8793 99.0859 18.2319 101.438 18.2319 104.341V122.64C18.2319 125.542 15.8796 127.894 12.9773 127.894ZM121.699 127.894C118.797 127.894 116.444 125.542 116.444 122.64V104.341C116.444 101.438 118.797 99.0859 121.699 99.0859C124.601 99.0859 126.954 101.438 126.954 104.341V122.64C126.954 125.542 124.601 127.894 121.699 127.894Z" fill="#823214"/>
<path d="M60.0544 133.375C56.5597 133.375 53.7266 130.542 53.7266 127.047V76.4684C53.7266 72.9738 56.5597 70.1406 60.0544 70.1406C63.549 70.1406 66.3821 72.9738 66.3821 76.4684V127.047C66.3821 130.542 63.549 133.375 60.0544 133.375ZM75.4418 133.375C71.9472 133.375 69.114 130.542 69.114 127.047V76.4684C69.114 72.9738 71.9472 70.1406 75.4418 70.1406C78.9364 70.1406 81.7696 72.9738 81.7696 76.4684V127.047C81.7696 130.542 78.9364 133.375 75.4418 133.375Z" fill="#FFB69E"/>
<path d="M68.5268 22.4173C74.5473 21.9889 79.0807 16.761 78.6523 10.7405C78.2239 4.71991 72.996 0.186564 66.9754 0.614955C60.9549 1.04335 56.4215 6.27125 56.8499 12.2918C57.2783 18.3124 62.5062 22.8457 68.5268 22.4173Z" fill="#FFB69E"/>
<path d="M73.2145 26.1027L73.1988 25.9375H61.9049L61.8871 26.139C61.5919 29.4658 64.2128 32.3298 67.5526 32.3298C70.9066 32.3295 73.5324 29.4418 73.2145 26.1027ZM51.4692 54.0447C52.1349 52.197 53.1715 49.3049 53.1715 49.3049L49.9332 43.8446L43.7639 44.287L43.5663 44.8423L29.0455 37.45C26.4505 36.1288 23.2753 37.1615 21.9539 39.7568C20.6328 42.3522 21.6655 45.527 24.2608 46.8484L44.1158 56.9565C44.7823 57.2959 45.5135 57.4897 46.2607 57.5248C47.0079 57.5599 47.754 57.4356 48.4494 57.1601C49.145 56.8847 49.7739 56.4645 50.2946 55.9274C50.8152 55.3902 51.2157 54.7485 51.4692 54.0447ZM107.505 63.7925L93.9563 50.4754C93.5636 49.3803 92.8285 47.3228 92.8285 47.3228L87.4891 46.8448L83.0599 51.327C83.0599 51.327 83.9545 53.8288 84.4369 55.1727C84.7049 55.9192 85.1379 56.5957 85.7035 57.1517L100.113 71.3141C101.098 72.2849 102.426 72.8283 103.809 72.8266C104.509 72.8274 105.202 72.6884 105.848 72.4176C106.494 72.1469 107.079 71.7498 107.57 71.2498C109.611 69.1724 109.582 65.8339 107.505 63.7925Z" fill="#FFB69E"/>
<path d="M81.1795 46.0426C81.7462 47.6475 83.0569 51.327 83.0569 51.327L92.8256 47.3228C92.8256 47.3228 89.9397 39.181 89.0756 36.6666C86.6291 29.5473 82.527 25.9375 76.8832 25.9375H73.1961C73.2186 28.9127 70.441 31.413 67.5418 31.413C64.4346 31.413 62.1196 28.9218 61.9022 25.9375H58.6132C52.9694 25.9375 48.8673 29.5473 46.4207 36.6666C45.4259 39.5616 43.7617 44.2873 43.7617 44.2873L53.1693 49.3052C53.1693 49.3052 53.8248 47.47 54.3112 46.0904L46.8272 85.3099C46.7452 85.7339 46.7579 86.1708 46.8644 86.5894C46.9709 87.0079 47.1686 87.3978 47.4433 87.7311C47.7179 88.0647 48.0628 88.3336 48.4535 88.5183C48.8441 88.703 49.2708 88.799 49.7029 88.7995H85.7935C86.2257 88.7995 86.6525 88.7039 87.0434 88.5195C87.4343 88.3351 87.7796 88.0665 88.0545 87.733C88.3294 87.3994 88.527 87.0092 88.6334 86.5903C88.7397 86.1714 88.752 85.7341 88.6694 85.3099L81.1795 46.0426Z" fill="#FF6473"/>
<path d="M116.058 99.2739L47.5803 99.1758L43.0195 93.6721C43.0195 90.5785 45.5274 88.0703 48.6211 88.0703H116.058C119.152 88.0703 121.66 90.5785 121.66 93.6721C121.66 96.7658 119.152 99.2739 116.058 99.2739Z" fill="#414B82"/>
<path d="M48.624 95.1587C47.0475 95.1587 45.4807 94.497 44.3726 93.2076C42.3565 90.8611 42.6241 87.3244 44.9706 85.3081L76.7696 57.9858C77.7856 57.1128 79.0808 56.6328 80.4203 56.6328H105.89C108.984 56.6328 111.492 59.141 111.492 62.2346C111.492 65.3283 108.984 67.8364 105.89 67.8364H82.4964L52.2721 93.8054C51.2578 94.6795 49.963 95.1598 48.624 95.1587Z" fill="#5F6E9B"/>
<path d="M56.9307 74.2589L35.1413 59.8201C32.2476 57.9025 28.3473 58.694 26.4299 61.5877L18.9334 72.9002C17.0158 75.7939 17.8073 79.6942 20.701 81.6116L47.58 99.1725L58.2072 89.147C62.6758 84.9313 62.0517 77.6523 56.9307 74.2589Z" fill="#64AFFF"/>
<path d="M22.7887 56.5947C22.8196 50.506 17.9086 45.5451 11.8199 45.5143C5.73111 45.4835 0.770213 50.3944 0.739395 56.4831C0.708577 62.5719 5.61951 67.5328 11.7083 67.5636C17.797 67.5944 22.7579 62.6835 22.7887 56.5947Z" fill="#FFB69E"/>
<path d="M49.3939 82.4787C48.8324 82.4787 48.2675 82.384 47.7232 82.1908L40.4781 79.6189L38.125 73.2575L43.4433 70.0688L48.5186 71.8703L62.4536 61.2631C64.6487 59.5919 67.7839 60.0169 69.4549 62.2126C71.1261 64.408 70.7008 67.5426 68.5054 69.2139L52.42 81.4578C51.5502 82.1202 50.4872 82.4789 49.3939 82.4787Z" fill="#FFB69E"/>
<path d="M43.4437 70.0746L31.3484 65.7814C28.7481 64.8584 25.892 66.2179 24.9689 68.8184C24.0458 71.4187 25.4056 74.2749 28.0059 75.1979L40.4782 79.625L43.4437 70.0746Z" fill="#4699F2"/>
<path d="M47.2855 106.962C46.5634 106.962 45.8327 106.764 45.1778 106.348L3.79105 80.0897C1.95328 78.9236 1.40873 76.4886 2.57457 74.6505C3.74067 72.8128 6.17572 72.268 8.01376 73.4341L49.4005 99.6928C51.2382 100.859 51.7828 103.294 50.617 105.132C49.8662 106.315 48.5899 106.962 47.2855 106.962Z" fill="#965028"/>
<path d="M128.775 109.595H5.90306C3.001 109.595 0.648438 107.243 0.648438 104.341C0.648438 101.438 3.001 99.0859 5.90306 99.0859H128.775C131.677 99.0859 134.029 101.438 134.029 104.341C134.03 107.243 131.677 109.595 128.775 109.595Z" fill="#965028"/>
</g>
<defs>
<clipPath id="clip0_1653_5344">
<rect x="0.648438" y="0.296875" width="133.381" height="133.381" rx="20" fill="white"/>
</clipPath>
</defs>
</svg>
