<svg width="120" height="120" viewBox="0 0 120 120" fill="none" xmlns="http://www.w3.org/2000/svg">
<g clip-path="url(#clip0_1653_5699)">
<path d="M112.464 76.6531H108.441C107.807 76.6531 107.182 76.5033 106.618 76.2158C106.053 75.9283 105.564 75.5113 105.191 74.9989L82.6494 44.016C81.7606 42.8531 80.6157 41.9107 79.3035 41.2621C77.9914 40.6135 76.5474 40.2761 75.0838 40.276H70.1275C69.6134 40.276 69.1203 40.0718 68.7567 39.7082C68.3932 39.3447 68.1889 38.8516 68.1889 38.3374V33.7448C68.1889 32.8381 68.6526 31.9995 69.4103 31.5016C74.1231 28.4058 77.2169 23.047 77.1459 16.9706C77.0365 7.61295 69.2965 0.00417777 59.9381 0.0470553C50.5154 0.0904015 42.89 7.74229 42.89 17.1754C42.89 23.1646 45.964 28.436 50.6206 31.4976C51.3804 31.9972 51.8481 32.836 51.8481 33.7455V38.3374C51.8481 38.8516 51.6439 39.3447 51.2803 39.7082C50.9167 40.0718 50.4236 40.276 49.9095 40.276H43.6386C42.1749 40.2761 40.7309 40.6135 39.4188 41.2621C38.1067 41.9107 36.9617 42.8531 36.0729 44.016L13.5669 75.2473C13.1946 75.7639 12.7049 76.1847 12.1381 76.4749C11.5712 76.7651 10.9436 76.9165 10.3068 76.9165H7.53567C3.37397 76.9162 0 80.2902 0 84.4521C0 88.6141 3.37374 91.9878 7.53567 91.9878H14.9385C10.3712 94.5394 7.28098 99.4187 7.28098 105.022C7.28098 113.264 13.9624 119.945 22.2043 119.945H85.4257L35.7604 92.4267C31.8031 90.8899 27.5951 90.1006 23.35 90.0988H23.0573C23.6476 89.6289 24.1737 89.0834 24.622 88.4765L38.9317 67.1685V85.9503C39.001 85.9831 39.0708 86.014 39.139 86.0517L60.1685 97.7072L79.7909 85.9355V67.1685L94.1371 88.2132C94.6055 88.8476 95.1587 89.4147 95.7812 89.8988C90.3559 89.9798 84.6265 91.4705 79.7909 94.1563V94.1324L67.2707 101.643L99.4042 119.453C106.265 118.108 111.442 112.066 111.442 104.811V104.74C111.442 99.1109 108.324 94.2451 103.722 91.7247H112.464C116.626 91.7247 120 88.3509 120 84.189C120 80.0268 116.626 76.6531 112.464 76.6531Z" fill="#7A99AE"/>
</g>
<defs>
<clipPath id="clip0_1653_5699">
<rect width="120" height="120" fill="white"/>
</clipPath>
</defs>
</svg>
